<?xml version="1.0" encoding="UTF-8"?>
<svg width="226px" height="223px" viewBox="0 0 226 223" version="1.1" xmlns="http://www.w3.org/2000/svg" xmlns:xlink="http://www.w3.org/1999/xlink">
    <!-- Generator: Sketch 51.1 (57501) - http://www.bohemiancoding.com/sketch -->
    <title>Group 42</title>
    <desc>Created with Sketch.</desc>
    <defs>
        <path d="M7.26010147,11.1797872 L2.90404059,25.3648936 L1.93602706,36.4244681 L7.26010147,44.7191489 L2.90404059,50.4893617 C4.03338971,58.1829787 4.59806427,63.151773 4.59806427,65.3957447 C4.59806427,67.6397163 4.59806427,71.887234 4.59806427,78.1382979 L5.5660778,84.9904255 L9.92213868,86.9138298 L4.59806427,89.1978723 L2.90404059,108.912766 L4.59806427,110.595745 L0.121001691,116.726596 L8.71212177,120.212766 L1.08901522,122.256383 L1.08901522,142.692553 L4.59806427,147.981915 L2.90404059,158.560638 L8.71212177,161.806383 L1.93602706,165.532979 L5.5660778,190.657447 L5.5660778,207.246809 L26.3783687,222.153191 L34.8484871,218.546809 L42.713597,224.076596 L74.053035,223.114894 L74.053035,210.011702 L79.4981111,224.076596 L85.6691974,224.076596 L88.6942397,220.951064 L93.8973124,222.634043 L112.410571,222.153191 L135.642896,225.879787 L153.79315,218.546809 L181.260533,224.797872 L208.485914,223.595745 L212.47897,219.989362 L212.47897,203.520213 L214.172993,194.985106 L214.899004,185.368085 L214.172993,179.47766 L223.006117,149.544681 L220.465081,142.692553 L223.006117,112.759574 L221.191092,101.459574 L215.867017,100.37766 L220.465081,99.2957447 L223.006117,68.4010638 L219.376066,53.2542553 L214.172993,53.9755319 L218.166049,51.8117021 L218.166049,21.7585106 L214.172993,18.8734043 L211.147951,10.3382979 L205.823877,9.61702128 L203.040838,12.7425532 L203.040838,9.61702128 L183.317562,6.49148936 L182.349549,10.3382979 L181.260533,6.49148936 L161.779261,3.00531915 L143.266002,5.40957447 L143.266002,9.61702128 L142.176987,5.40957447 L119.186666,0.120212766 L105.87648,3.72659574 L59.5328321,0.120212766 L36.6635124,3.72659574 L33.0334617,3.72659574 L33.0334617,4.56808511 L19.2392689,5.40957447 L7.26010147,11.1797872 Z" id="path-1"></path>
        <path d="M68.1546839,191.327959 C62.0076009,195.938271 42.7979665,197.475042 38.1876542,185.180876 C33.577342,172.88671 32.8464332,166.253648 27.4677356,156.264638 C22.0890379,146.275628 18.9780198,141.382909 13.5993222,133.699056 C8.22062452,126.015202 2.84192688,119.868119 2.84192688,112.184265 C2.84192688,104.500411 -3.30515613,94.5114013 2.84192688,82.9856207 C8.9890099,71.45984 15.1360929,62.2392155 20.5147906,49.9450495 C25.8934882,37.6508835 38.9560396,27.6618736 55.8605179,24.5883321 C72.7649962,21.5147906 71.9966108,16.9044783 85.8275476,11.5257807 C99.6584844,6.14708301 110.41588,0.768385377 116.562963,0.768385377 C122.710046,0.768385377 124.246816,5.37869764 131.162285,6.14708301 C138.077753,6.91546839 143.456451,6.14708301 148.835148,13.0625514 C154.213846,19.9780198 146.529992,43.0295811 163.434471,52.2502056 C180.338949,61.4708301 198.011813,77.4501097 200.316969,86.0591622 C202.622125,94.6682147 202.622125,108.342338 194.169886,117.562963 C185.717647,126.783587 155.750617,138.309368 139.614524,145.224836 C123.478431,152.140305 117.331348,165.971241 107.342338,172.118324 C97.3533282,178.265407 97.3533282,175.191866 88.1327037,176.728637 C78.9120792,178.265407 74.3017669,186.717647 68.1546839,191.327959 Z" id="path-3"></path>
        <path d="M37.8199467,133.993222 L0.169063218,99.4158796 L28.5993222,31.0295811 C51.6508835,14.1251028 74.1901878,4.13609291 96.2172353,1.06255141 C129.257807,-3.54776086 150.004212,22.577342 156.151295,28.724425 C162.298378,34.871508 159.224836,39.4818202 163.835148,54.0811424 C168.445461,68.6804646 163.835148,90.1952551 159.224836,103.257807 C154.614524,116.320358 136.94166,127.077753 121.573953,130.151295 C106.206245,133.224836 109.279787,138.603534 82.3862985,141.677075 C64.4573064,143.726103 49.6018558,141.164818 37.8199467,133.993222 Z M140.783587,110.94166 C146.901834,105.21394 150.772597,97.1107235 153.077753,88.6584844 C155.382909,80.2062452 150.772597,67.9120792 153.077753,61.7649962 C155.382909,55.6179132 150.772597,46.3972886 144.625514,39.4818202 C138.478431,32.5663519 128.489421,17.1986443 116.96364,12.5883321 C105.43786,7.9780198 93.9120792,19.5038004 84.6914547,21.8089566 C75.4708301,24.1141127 72.3972886,17.1986443 56.2611957,25.6508835 C40.1251028,34.1031226 43.9670297,44.0921325 39.3567174,51.0076009 C34.7464052,57.9230693 33.2096344,57.9230693 25.5257807,70.9856207 C17.8419269,84.0481721 28.5993222,114.783587 37.0515613,122.467441 C45.5038004,130.151295 64.7134349,123.620019 72.3972886,126.309368 C80.0811424,128.998717 80.0811424,130.151295 84.6914547,130.151295 C89.3017669,130.151295 93.1436938,126.309368 98.5223914,126.309368 C103.901089,126.309368 106.206245,122.467441 116.96364,122.467441 C127.721036,122.467441 134.665341,116.669381 140.783587,110.94166 Z" id="path-5"></path>
    </defs>
    <g id="Page-1" stroke="none" stroke-width="1" fill="none" fill-rule="evenodd">
        <g id="Group-42" transform="translate(-23.000000, -27.000000)">
            <g id="Group-6-Copy-79" transform="translate(136.000000, 139.000000) rotate(-270.000000) translate(-136.000000, -139.000000) translate(24.000000, 26.000000)">
                <g id="Path-33-+-Path-34-+-Path-39-+-Path-40-+-Path-43-+-Path-48-+-Path-55-+-Path-56-+-Path-59-+-Path-63-+-Path-70-+-Path-74-Mask">
                    <mask id="mask-2" fill="white">
                        <use xlink:href="#path-1"></use>
                    </mask>
                    <use id="Mask" fill="#BFAF84" xlink:href="#path-1"></use>
                    <polygon id="Path-32" fill="#72585E" mask="url(#mask-2)" points="9.07512684 17.3106383 9.07512684 32.6978723 13.5521894 46.4021277 13.5521894 52.412766 10.6481488 56.3797872 9.07512684 71.406383 9.07512684 85.7117021 17.5452452 88.356383 9.07512684 88.356383 9.07512684 96.6510638 10.6481488 104.585106 7.01809809 113.841489 14.3992013 122.496809 9.07512684 123.218085 9.07512684 128.988298 13.5521894 143.053191 9.07512684 150.145745 9.07512684 160.003191 15.9722232 163.369149 9.07512684 163.369149 13.5521894 174.068085 15.9722232 197.990426 24.9263484 211.334043 36.9055158 208.929787 43.3186055 215.661702 72.8430181 213.858511 74.6580435 197.990426 76.8360739 212.295745 84.8221856 213.858511 84.8221856 210.011702 90.6302667 212.295745 100.068399 211.334043 124.994747 215.661702 151.736121 212.295745 187.310618 215.661702 199.531789 213.858511 201.346814 207.367021 204.61386 202.197872 204.61386 186.810638 201.346814 184.045745 202.314828 172.505319 216.593027 152.55 213.93099 143.053191 216.593027 128.146809 216.593027 117.207447 218.287051 111.67766 215.262009 101.940426 209.211924 100.618085 215.262009 98.9351064 216.593027 89.6787234 215.262009 62.8712766 211.510956 67.5595745 206.912892 62.8712766 196.74875 57.9425532 195.29673 54.3361702 198.442774 54.3361702 199.531789 56.3797872 206.912892 55.2978723 215.020005 51.9319149 215.020005 31.7361702 208.001907 14.906383 200.378801 18.512766 200.378801 12.0212766 183.922571 10.4585106 181.139532 15.9882979 181.139532 10.4585106 161.537258 8.05425532 144.960026 9.49680851 142.539992 15.9882979 142.539992 10.4585106 122.33271 11.1797872 117.250639 9.49680851 93.5343073 9.49680851 67.6399454 5.52978723 42.3505919 5.52978723 18.2712554 9.49680851 13.5521894 12.862766"></polygon>
                    <polygon id="Path-75" fill="#BFAF84" mask="url(#mask-2)" points="16.9402368 88.7170213 24.3213399 90.4 48.8846833 89.5585106 76.7150722 105.426596 76.7150722 72.4882979 90.14626 56.5 79.9821179 29.5723404 64.3728997 20.1957447 61.8318642 14.0648936 55.4187746 8.53510638 24.3213399 0.120212766 -3.75105243 10.0978723 -1.69402368 48.4457447 4.1140575 86.793617"></polygon>
                    <polygon id="Path-31" fill="#BFAF84" mask="url(#mask-2)" points="17.0612385 99.4159574 65.5829167 120.212766 72.9640198 131.031915 90.14626 138.485106 105.15047 149.424468 96.5593496 183.805319 90.14626 199.432979 90.14626 213.137234 91.8402837 227.202128 0.726010147 222.51383 -0.96801353 91.962766"></polygon>
                    <polygon id="Path-33" fill="#4C3E41" opacity="0.293973214" mask="url(#mask-2)" points="2.05702875 36.3042553 9.19612853 32.6978723 15.9722232 39.0691489 20.9332926 45.0797872 18.029252 50.2489362 16.3352283 47.6042553 14.7622063 48.0851064 13.5521894 46.5223404 6.8970964 44.7191489"></polygon>
                    <polygon id="Path-34" fill="#4C3E41" opacity="0.293973214" mask="url(#mask-2)" points="3.26704566 50.2489362 13.5521894 52.5329787 23.5953298 62.8712766 31.4604397 65.756383 23.5953298 63.8329787 13.9151945 58.9042553 11.0111539 55.7787234"></polygon>
                    <polygon id="Path-39" fill="#434343" opacity="0.293973214" mask="url(#mask-2)" points="0.96801353 129.348936 9.19612853 128.868085 13.310186 131.873404 17.6662469 136.681915 19.2392689 129.709574 16.9402368 123.338298 8.83312346 122.97766 -0.242003382 122.13617"></polygon>
                    <polygon id="Path-40" fill="#424242" opacity="0.293973214" mask="url(#mask-2)" points="1.08901522 143.053191 13.310186 142.692553 19.2392689 146.659574 29.766416 146.178723 19.7232757 151.347872 9.07512684 149.905319 4.71906596 148.102128"></polygon>
                    <polygon id="Path-43" fill="#434343" opacity="0.293973214" mask="url(#mask-2)" points="26.257367 222.032979 25.1683518 210.973404 31.0974346 206.88617 32.1864499 198.471277 27.3463822 190.176596 35.5744972 193.903191 41.9875869 200.635106 36.9055158 208.809574 34.7274854 218.667021"></polygon>
                    <polygon id="Path-55" fill="#4C3E41" opacity="0.293973214" mask="url(#mask-2)" points="216.593027 152.670213 212.236966 155.074468 206.428885 163.369149 202.193826 163.008511 204.371857 165.532979 202.193826 168.898936 195.29673 171.904255 185.737596 171.062766 178.961501 167.456383 188.036628 175.871277 202.193826 172.385106"></polygon>
                    <polygon id="Path-70" fill="#4C3E41" opacity="0.293973214" mask="url(#mask-2)" points="122.453712 11.0595745 119.065664 0 117.008635 9.37659574 119.065664 12.7425532 119.065664 16.1085106 117.008635 23.0808511 118.581657 27.7691489 119.065664 18.8734043 119.731173 16.1085106 120.154679 13.4638298"></polygon>
                    <polygon id="Path-74" fill="#4C3E41" opacity="0.293973214" mask="url(#mask-2)" points="6.8970964 10.8191489 8.95412515 17.5510638 10.5271471 19.2340426 11.4951607 22.8404255 18.029252 25.7255319 17.3032418 21.3978723 13.5521894 18.512766 13.5521894 12.862766 8.228115 9.97765957"></polygon>
                    <polygon id="Path-35" fill="#4C3E41" mask="url(#mask-2)" points="11.0111539 55.8989362 9.07512684 71.1659574 3.87205412 78.7393617 3.26704566 50.3691489"></polygon>
                    <polygon id="Path-38" fill="#72585E" mask="url(#mask-2)" points="-0.121001691 116.726596 7.13909978 113.961702 14.2781996 122.617021 8.95412515 122.97766 0.726010147 122.256383"></polygon>
                    <polygon id="Path-41" fill="#4C3E41" mask="url(#mask-2)" points="4.59806427 148.102128 9.19612853 150.025532 9.19612853 160.724468 16.3352283 163.489362 9.19612853 163.489362 2.17803044 165.653191 2.54103552 150.987234"></polygon>
                    <polygon id="Path-44" fill="#4C3E41" mask="url(#mask-2)" points="36.9055158 208.569149 43.1976038 215.661702 42.5925953 224.557447 34.7274854 218.907447"></polygon>
                    <path d="M43.1976038,215.661702 L72.7220164,213.738298 L74.6580435,198.351064 C75.3852554,203.591402 76.1112656,208.159487 76.8360739,212.055319 C77.5608823,215.951151 78.4078942,219.83803 79.3771095,223.715957 L42.713597,224.437234 L43.1976038,215.661702 Z" id="Path-45" fill="#4C3E41" mask="url(#mask-2)"></path>
                    <polygon id="Path-46" fill="#4C3E41" mask="url(#mask-2)" points="85.6691974 223.715957 84.2171771 209.651064 89.0572448 221.071277"></polygon>
                    <polygon id="Path-47" fill="#4C3E41" mask="url(#mask-2)" points="90.3882634 213.017021 100.552405 210.732979 113.01558 222.51383 94.3813192 223.114894"></polygon>
                    <polygon id="Path-49" fill="#4C3E41" mask="url(#mask-2)" points="124.51074 215.661702 136.489908 226.721277 111.926564 222.994681"></polygon>
                    <polygon id="Path-50" fill="#4C3E41" mask="url(#mask-2)" points="154.035153 218.907447 151.373116 213.137234 147.622063 208.208511 150.284101 192.460638 149.55809 179.47766 152.341129 194.26383 152.825136 202.678723 157.786205 211.093617 188.036628 215.661702 181.260533 225.038298"></polygon>
                    <polygon id="Path-51" fill="#4C3E41" mask="url(#mask-2)" points="199.773792 213.858511 212.357968 220.229787 201.709819 207.126596"></polygon>
                    <polygon id="Path-52" fill="#4C3E41" mask="url(#mask-2)" points="214.778002 184.887234 204.61386 187.411702 202.072824 187.411702 196.627748 191.859574 196.627748 202.07766 204.61386 203.039362 214.778002 194.384043"></polygon>
                    <polygon id="Path-53" fill="#4C3E41" mask="url(#mask-2)" points="202.193826 172.505319 211.279972 169.810721 218.408053 167.696809 214.051992 180.078723 201.588818 184.28617"></polygon>
                    <path d="M223.006117,113 C223.006117,113 221.352427,112.479078 218.045048,111.437234 L215.020005,101.579787 L209.453928,100.497872 L216.230022,99.2957447 L216.835031,90.4 L222.280107,68.5212766 C222.764114,98.1737589 223.006117,113 223.006117,113 Z" id="Path-58" fill="#4C3E41" mask="url(#mask-2)"></path>
                    <polygon id="Path-62" fill="#72585E" mask="url(#mask-2)" points="211.268953 10.0978723 207.880906 14.6659574 214.657 31.856383 214.657 51.5712766 218.287051 51.5712766 218.287051 21.3978723"></polygon>
                    <polygon id="Path-68" fill="#4C3E41" mask="url(#mask-2)" points="161.416256 2.64468085 161.416256 8.29468085 180.897528 10.8191489 181.623539 5.89042553"></polygon>
                    <polygon id="Path-72" fill="#4C3E41" mask="url(#mask-2)" points="67.2769403 5.52978723 42.3505919 5.52978723 32.3074516 3.60638298 58.5648186 -0.480851064"></polygon>
                    <polygon id="Path-73" fill="#4C3E41" mask="url(#mask-2)" points="18.7552621 5.52978723 18.029252 9.25638298 13.6731911 12.7425532 8.3491167 9.97765957"></polygon>
                    <polygon id="Path-36" fill="#4C3E41" mask="url(#mask-2)" points="5.44507611 85.1106383 8.95412515 85.4712766 17.7872486 88.7170213 9.55913361 88.7170213 4.23505919 89.3180851"></polygon>
                    <polygon id="Path-37" fill="#4C3E41" mask="url(#mask-2)" points="4.23505919 89.3180851 8.47011839 96.7712766 3.14604397 109.273404"></polygon>
                    <polygon id="Path-42" fill="#4C3E41" mask="url(#mask-2)" points="12.947181 173.467021 5.44507611 191.979787 4.71906596 207.72766 15.7302199 197.509574"></polygon>
                    <polygon id="Path-54" fill="#72585E" mask="url(#mask-2)" points="222.885115 149.785106 216.593027 152.670213 202.072824 172.385106 218.529054 167.456383"></polygon>
                    <polygon id="Path-57" fill="#4C3E41" mask="url(#mask-2)" points="190.456662 112.759574 194.449718 112.038298 207.638902 112.759574 211.147951 115.284043 216.835031 116.967021 222.764114 117.32766 221.312093 134.638298 205.823877 116.967021"></polygon>
                    <polygon id="Path-60" fill="#72585E" mask="url(#mask-2)" points="219.739071 53.2542553 215.625014 56.1393617 210.784946 55.1776596 214.657 51.8117021 218.771058 51.8117021"></polygon>
                    <polygon id="Path-61" fill="#72585E" mask="url(#mask-2)" points="212.357968 55.4180851 208.606916 56.6202128 199.652791 56.6202128 197.716763 54.8170213 194.449718 54.0957447 198.079769 54.0957447 200.257799 56.0191489 207.154895 55.4180851 212.357968 53.6148936"></polygon>
                    <polygon id="Path-64" fill="#4C3E41" mask="url(#mask-2)" points="200.620804 18.1521277 208.001907 14.6659574 204.855863 7.93404255"></polygon>
                    <polygon id="Path-65" fill="#4C3E41" mask="url(#mask-2)" points="205.702875 9.85744681 207.759904 14.6659574 211.631958 9.49680851"></polygon>
                    <polygon id="Path-66" fill="#4C3E41" mask="url(#mask-2)" points="200.620804 18.0319149 200.620804 11.9010638 202.798835 9.01595745 203.282841 11.9010638"></polygon>
                    <polygon id="Path-67" fill="#72585E" mask="url(#mask-2)" points="183.801569 10.2180851 180.897528 16.1085106 180.897528 10.6989362 181.865542 4.44787234 182.954557 4.80851064"></polygon>
                    <polygon id="Path-69" fill="#4C3E41" mask="url(#mask-2)" points="145.081028 9.49680851 142.539992 15.8680851 142.539992 9.97765957 142.539992 4.08723404 143.145001 5.2893617"></polygon>
                    <polygon id="Path-71" fill="#4C3E41" mask="url(#mask-2)" points="106.60249 3.24574468 93.2923039 9.73723404 67.2769403 5.40957447 57.9598101 -0.841489362"></polygon>
                </g>
            </g>
            <g id="Group-41" transform="translate(140.360696, 140.360696) rotate(-315.000000) translate(-140.360696, -140.360696) translate(39.360696, 42.860696)">
                <g id="Path-151" transform="translate(0.000000, -0.000000)">
                    <mask id="mask-4" fill="white">
                        <use xlink:href="#path-3"></use>
                    </mask>
                    <use id="Mask" fill="#947D6A" xlink:href="#path-3"></use>
                    <path d="M18.1119587,132.501786 C12.7332611,124.817932 6.79825023,119.679543 6.79825023,111.995689 C6.79825023,104.311835 -0.0559395705,95.2371984 6.09114344,83.7114178 C12.2382265,72.1856371 15.9152416,70.9032931 21.2939392,58.609127 C26.6726369,46.314961 42.3534873,29.6431235 59.2579656,26.569582 C76.1624438,23.4960405 75.6988068,23.3291848 89.5297436,17.9504871 C103.36068,12.5717895 126.162621,41.6385643 132.309704,41.6385643 C138.456787,41.6385643 141.318256,77.577239 143.623412,86.1862915 C145.928569,94.795344 144.297477,110.906792 135.845238,120.127417 C127.392999,129.348042 96.119895,138.667793 79.9838021,145.583261 C63.8477092,152.49873 23.4906564,140.185639 18.1119587,132.501786 Z" id="Mask" fill="#DB5501" mask="url(#mask-4)"></path>
                    <path d="M115.096794,19.8886799 C121.709066,19.5170048 125.783587,18.5627819 127.320358,17.0260112 C129.625514,14.7208551 141.176658,10.2405648 141.176658,7.93540862 C141.176658,5.63025249 129.580276,4.58220478 126.506734,3.04543403 C123.433193,1.50866327 118.868119,1.33814308 115.026192,6.26861592 C112.464907,9.55559781 106.573953,11.348497 97.3533282,11.6473136 L115.096794,19.8886799 Z" id="Path-153" fill="#72585E" mask="url(#mask-4)"></path>
                    <path d="M152.677075,37.6508835 C155.750617,52.5063341 161.8977,64.8005001 171.118324,74.5333815 C184.949261,89.1327037 194.169886,93.743016 198.011813,109.879109 C193.913757,99.6339705 184.949261,89.9010891 171.118324,80.6804646 C150.371919,66.8495278 144.224836,28.4302589 147.298378,13.0625514 C149.347405,2.81741305 152.677075,2.30515613 157.287388,11.5257807 L152.677075,37.6508835 Z" id="Path-154" fill="#BFAF84" mask="url(#mask-4)"></path>
                    <path d="M50.4818202,154.445461 C58.6779309,158.543516 63.5443717,163.922214 65.0811424,170.581554 C67.3862985,180.570564 60.4708301,192.86473 47.4082787,192.86473 C38.6999111,192.86473 44.5908657,195.682143 65.0811424,201.316969 L93.5114013,176.728637 C83.266263,173.142838 76.0946661,164.946728 71.9966108,152.140305 C67.8985555,139.333882 60.7269586,140.102267 50.4818202,154.445461 Z" id="Path-155" fill="#72585E" mask="url(#mask-4)"></path>
                    <path d="M49.7134349,139.077753 C47.1521503,132.418413 41.7734526,124.478431 33.577342,115.257807 C21.2831759,101.42687 22.0515613,82.9856207 28.9670297,78.3753084 C35.8824981,73.7649962 45.871508,59.9340594 57.3972886,48.4082787 C68.9230693,36.8824981 84.2907768,37.6508835 95.0481721,34.577342 C102.219769,32.5283143 108.62298,29.7109012 114.257807,26.1251028 L97.3533282,5.37869764 L31.2721858,5.37869764 L-14.0625514,66.0811424 L-10.9890099,117.562963 L16.6728637,149.066763 L49.7134349,139.077753 Z" fill="#72585E" mask="url(#mask-4)"></path>
                    <g id="Path-159" mask="url(#mask-4)">
                        <g transform="translate(-15.000000, 12.000000)">
                            <mask id="mask-6" fill="white">
                                <use xlink:href="#path-5"></use>
                            </mask>
                            <use id="Mask" stroke="none" fill="#D0C29D" fill-rule="evenodd" xlink:href="#path-5"></use>
                            <path d="M32.0512986,127.2193 C41.6360069,135.389795 53.1854177,139.632436 66.6995308,139.947222 C86.9707006,140.419402 99.5799962,136.765242 110.186598,131.108387 C120.7932,125.451533 130.339141,127.2193 142.71351,119.087572 C155.087878,110.955844 156.855645,99.995689 161.45184,84.0857864 C166.048034,68.1758839 160.037626,52.2659813 159.330519,47.3162338 C158.623412,42.3664863 158.623412,31.0527778 144.83483,17.2641956 C135.642442,8.07180746 144.127723,12.3144481 170.290674,29.9921177 L175.593975,56.508622 L174.179762,98.9350288 L124.682287,143.482756 L68.4672978,154.442911 L43.865099,143.982848 L32.0512986,127.2193 Z" id="Path-159" stroke="none" fill="#4C3E41" fill-rule="evenodd" mask="url(#mask-6)"></path>
                            <path d="M33.8190655,128.27996 C27.2194022,119.323274 22.9767615,112.016504 21.0911434,106.35965 C18.2627163,97.8743687 20.0304833,96.8137085 19.3233765,93.2781746 C18.6162697,89.7426407 15.4342892,83.0251263 17.5556095,76.6611652 C19.6769299,70.2972042 28.1622113,58.2763889 30.9906384,51.9124279 C33.8190655,45.5484669 38.0617062,32.8205448 48.3147545,24.6888168 C58.5678028,16.5570888 72.3563851,16.2035354 78.3667927,13.0215549 C84.3772004,9.83957441 93.5695885,4.88982694 98.8728894,3.12205999 C104.17619,1.35429304 117.964772,0.293632867 148.370364,19.385516 C168.640758,32.113438 156.502092,22.3317942 111.954365,-9.95941546 L91.4482682,-18.4446968 L47.9612011,7.36470068 L19.3233765,40.245166 L6.94900782,68.1758839 L8.00966799,100.349242 L33.8190655,128.27996 Z" id="Path-160" stroke="none" fill="#E8D9AE" fill-rule="evenodd" mask="url(#mask-6)"></path>
                        </g>
                    </g>
                </g>
                <path d="M35.9785463,76.8385377 C31.368234,81.4488499 25.221151,87.595933 29.8314632,95.2797867 C34.4417755,102.96364 34.4417755,100.658484 35.9785463,104.500411 C37.515317,108.342338 37.515317,116.026192 41.3572439,114.489421 C45.1991708,112.95265 42.8940146,107.573953 41.3572439,107.573953 C39.8204731,107.573953 37.515317,106.805567 41.3572439,104.500411 C45.1991708,102.195255 47.5043269,104.500411 47.5043269,106.037182 C47.5043269,107.573953 46.7359415,110.647494 51.3462538,110.647494 C55.9565661,110.647494 51.3462538,99.890099 53.6514099,99.1217136 C55.9565661,98.3533282 58.2617222,102.195255 60.5668783,100.658484 C62.8720344,99.1217136 66.7139613,96.8165575 66.7139613,95.2797867 C66.7139613,93.743016 62.1036491,96.8165575 62.1036491,95.2797867 C62.1036491,93.743016 62.8720344,90.6694745 66.7139613,90.6694745 C70.5558882,90.6694745 67.4823467,96.8165575 70.5558882,95.2797867 C73.6294297,93.743016 85.9235957,89.9010891 86.6919811,86.0591622 C87.4603665,82.2172353 81.3132835,85.2907768 79.0081274,83.7540061 C76.7029712,82.2172353 76.7029712,79.1436938 73.6294297,76.8385377 C70.5558882,74.5333815 68.2507321,76.8385377 68.2507321,74.5333815 C68.2507321,72.2282254 71.3242736,72.2282254 70.5558882,69.1546839 C69.7875028,66.0811424 65.1771906,66.0811424 66.7139613,63.0076009 C68.2507321,59.9340594 69.7875028,60.7024448 73.6294297,59.165674 C77.4713566,57.6289033 77.4713566,55.3237471 79.0081274,55.3237471 C80.5448981,55.3237471 80.5448981,57.6289033 82.8500542,57.6289033 C85.1552104,57.6289033 86.6919811,53.018591 88.9971373,53.018591 C91.3022934,53.018591 95.9126056,52.2502056 95.9126056,49.9450495 C95.9126056,47.6398934 93.6074495,48.4082787 91.3022934,49.9450495 C88.9971373,51.4818202 85.9235957,49.9450495 84.386825,51.4818202 C82.8500542,53.018591 79.7765127,53.018591 76.7029712,53.018591 C73.6294297,53.018591 72.8610443,57.6289033 70.5558882,55.3237471 C68.2507321,53.018591 71.3242736,48.4082787 75.1662005,48.4082787 C79.0081274,48.4082787 78.239742,53.018591 80.5448981,51.4818202 C82.8500542,49.9450495 84.386825,50.7134349 86.6919811,46.1031226 C88.9971373,41.4928103 91.3022934,48.4082787 94.3758349,46.1031226 C97.4493764,43.7979665 101.291303,37.6508835 105.901616,38.4192688 C110.511928,39.1876542 118.195782,41.4928103 114.353855,43.7979665 C110.511928,46.1031226 105.901616,43.7979665 105.901616,46.1031226 C105.901616,48.4082787 108.975157,48.4082787 110.511928,48.4082787 C112.048699,48.4082787 115.12224,43.7979665 116.659011,46.1031226 C118.195782,48.4082787 128.184791,56.8605179 128.953177,55.3237471 C129.721562,53.7869764 124.342865,46.871508 121.269323,43.7979665 C118.195782,40.724425 114.353855,35.3457273 110.511928,35.3457273 C106.670001,35.3457273 95.9126056,36.8824981 91.3022934,38.4192688 C86.6919811,39.9560396 76.7029712,42.2611957 73.6294297,42.2611957 C70.5558882,42.2611957 55.1881807,53.7869764 49.809483,61.4708301 C44.4307854,69.1546839 40.5888585,72.2282254 35.9785463,76.8385377 Z" id="Path-156" fill="#C14C03"></path>
            </g>
        </g>
    </g>
</svg>