<?xml version="1.0" encoding="UTF-8"?>
<svg width="233px" height="236px" viewBox="0 0 233 236" version="1.1" xmlns="http://www.w3.org/2000/svg" xmlns:xlink="http://www.w3.org/1999/xlink">
    <!-- Generator: Sketch 51.1 (57501) - http://www.bohemiancoding.com/sketch -->
    <title>Group 6 Copy 6</title>
    <desc>Created with Sketch.</desc>
    <defs>
        <path d="M7.5813449,11.6744681 L3.03253796,26.487234 L2.02169197,38.0361702 L7.5813449,46.6978723 L3.03253796,52.7234043 C4.21185828,60.7574468 4.80151844,65.9460993 4.80151844,68.2893617 C4.80151844,70.6326241 4.80151844,75.0680851 4.80151844,81.5957447 L5.81236443,88.7510638 L10.3611714,90.7595745 L4.80151844,93.1446809 L3.03253796,113.731915 L4.80151844,115.489362 L0.126355748,121.891489 L9.09761388,125.531915 L1.13720174,127.665957 L1.13720174,149.006383 L4.80151844,154.529787 L3.03253796,165.576596 L9.09761388,168.965957 L2.02169197,172.857447 L5.81236443,199.093617 L5.81236443,216.417021 L27.5455531,231.982979 L36.3904555,228.217021 L44.6035792,233.991489 L77.329718,232.987234 L77.329718,219.304255 L83.0157267,233.991489 L89.4598698,233.991489 L92.6187636,230.72766 L98.0520607,232.485106 L117.38449,231.982979 L141.644794,235.874468 L160.598156,228.217021 L189.280911,234.744681 L217.710954,233.489362 L221.880694,229.723404 L221.880694,212.525532 L223.649675,203.612766 L224.407809,193.570213 L223.649675,187.419149 L232.873644,156.161702 L230.220174,149.006383 L232.873644,117.748936 L230.978308,105.948936 L225.418655,104.819149 L230.220174,103.689362 L232.873644,71.4276596 L229.082972,55.6106383 L223.649675,56.3638298 L227.819414,54.1042553 L227.819414,22.7212766 L223.649675,19.7085106 L220.490781,10.7957447 L214.931128,10.0425532 L212.024946,13.306383 L212.024946,10.0425532 L191.428959,6.7787234 L190.418113,10.7957447 L189.280911,6.7787234 L168.937636,3.13829787 L149.605206,5.64893617 L149.605206,10.0425532 L148.468004,5.64893617 L124.460412,0.125531915 L110.56128,3.89148936 L62.1670282,0.125531915 L38.2857918,3.89148936 L34.4951193,3.89148936 L34.4951193,4.77021277 L20.090564,5.64893617 L7.5813449,11.6744681 Z" id="path-1"></path>
    </defs>
    <g id="Page-1" stroke="none" stroke-width="1" fill="none" fill-rule="evenodd">
        <g id="Group-6-Copy-6">
            <g id="Path-33-+-Path-34-+-Path-39-+-Path-40-+-Path-43-+-Path-48-+-Path-55-+-Path-56-+-Path-59-+-Path-63-+-Path-70-+-Path-74-Mask">
                <mask id="mask-2" fill="white">
                    <use xlink:href="#path-1"></use>
                </mask>
                <use id="Mask" fill="#EFC574" xlink:href="#path-1"></use>
                <polygon id="Path-32" fill="#FFEA91" mask="url(#mask-2)" points="9.47668113 18.0765957 9.47668113 34.1446809 14.1518438 48.4553191 14.1518438 54.7319149 11.1193059 58.8744681 9.47668113 74.5659574 9.47668113 89.5042553 18.3215835 92.2659574 9.47668113 92.2659574 9.47668113 100.92766 11.1193059 109.212766 7.32863341 118.878723 15.0363341 127.917021 9.47668113 128.670213 9.47668113 134.695745 14.1518438 149.382979 9.47668113 156.789362 9.47668113 167.082979 16.6789588 170.597872 9.47668113 170.597872 14.1518438 181.770213 16.6789588 206.751064 26.0292842 220.685106 38.5385033 218.174468 45.2353579 225.204255 76.0661605 223.321277 77.9614967 206.751064 80.2359002 221.689362 88.5753796 223.321277 88.5753796 219.304255 94.6404555 221.689362 104.496204 220.685106 130.525488 225.204255 158.450108 221.689362 195.598698 225.204255 208.360629 223.321277 210.255965 216.542553 213.66757 211.144681 213.66757 195.076596 210.255965 192.189362 211.266811 180.138298 226.17679 159.3 223.396963 149.382979 226.17679 133.817021 226.17679 122.393617 227.94577 116.619149 224.786876 106.451064 218.469089 105.070213 224.786876 103.312766 226.17679 93.6468085 224.786876 65.6531915 220.869848 70.5489362 216.06833 65.6531915 205.454447 60.506383 203.938178 56.7404255 207.223427 56.7404255 208.360629 58.8744681 216.06833 57.7446809 224.534165 54.2297872 224.534165 33.1404255 217.205531 15.5659574 209.245119 19.3319149 209.245119 12.5531915 192.060738 10.9212766 189.154555 16.6957447 189.154555 10.9212766 168.684924 8.4106383 151.374187 9.91702128 148.847072 16.6957447 148.847072 10.9212766 127.745662 11.6744681 122.43872 9.91702128 97.6729935 9.91702128 70.6328633 5.77446809 44.2245119 5.77446809 19.079718 9.91702128 14.1518438 13.4319149"></polygon>
                <polygon id="Path-76" fill="#FAD081" mask="url(#mask-2)" points="189.154555 14.0595745 184.984816 29.7510638 184.984816 38.6638298 173.739154 51.593617 157.944685 59.1255319 150.742408 70.8 164.388829 97.287234 179.425163 79.587234 218.974512 77.9553191 220.743492 69.4191489 203.306399 55.6734043 191.049892 6.90425532"></polygon>
                <polygon id="Path-77" fill="#D7AA57" mask="url(#mask-2)" points="191.176247 10.0425532 200.90564 57.493617 219.606291 63.2680851 234.516269 50.4638298 233.126356 17.1978723 214.552061 1.88297872"></polygon>
                <polygon id="Path-75" fill="#FAD081" mask="url(#mask-2)" points="17.6898048 92.6425532 25.3975054 94.4 51.0477223 93.5212766 80.1095445 110.091489 80.1095445 75.6957447 94.1350325 59 83.5211497 30.8808511 67.2212581 21.0893617 64.5677874 14.687234 57.8709328 8.91276596 25.3975054 0.125531915 -3.9170282 10.5446809 -1.76898048 50.5893617 4.29609544 90.6340426"></polygon>
                <polygon id="Path-31" fill="#FAD081" mask="url(#mask-2)" points="17.8161605 103.814894 68.4848156 125.531915 76.1925163 136.829787 94.1350325 144.612766 109.803145 156.03617 100.831887 191.938298 94.1350325 208.257447 94.1350325 222.568085 95.904013 237.255319 0.75813449 232.359574 -1.01084599 96.0319149"></polygon>
                <polygon id="Path-33" fill="#434343" opacity="0.293973214" mask="url(#mask-2)" points="2.14804772 37.9106383 9.60303688 34.1446809 16.6789588 40.7978723 21.8595445 47.0744681 18.8270065 52.4723404 17.058026 49.7106383 15.4154013 50.212766 14.1518438 48.5808511 7.20227766 46.6978723"></polygon>
                <polygon id="Path-34" fill="#424242" opacity="0.293973214" mask="url(#mask-2)" points="3.41160521 52.4723404 14.1518438 54.8574468 24.6393709 65.6531915 32.8524946 68.6659574 24.6393709 66.6574468 14.5309111 61.5106383 11.4983731 58.2468085"></polygon>
                <polygon id="Path-39" fill="#434343" opacity="0.293973214" mask="url(#mask-2)" points="1.01084599 135.07234 9.60303688 134.570213 13.8991323 137.708511 18.4479393 142.729787 20.090564 135.448936 17.6898048 128.795745 9.22396963 128.419149 -0.252711497 127.540426"></polygon>
                <polygon id="Path-40" fill="#424242" opacity="0.293973214" mask="url(#mask-2)" points="1.13720174 149.382979 13.8991323 149.006383 20.090564 153.148936 31.0835141 152.646809 20.595987 158.044681 9.47668113 156.538298 4.92787419 154.655319"></polygon>
                <polygon id="Path-43" fill="#434343" opacity="0.293973214" mask="url(#mask-2)" points="27.4191974 231.857447 26.2819957 220.308511 32.4734273 216.040426 33.6106291 207.253191 28.5563991 198.591489 37.14859 202.482979 43.8454447 209.512766 38.5385033 218.048936 36.2640998 228.342553"></polygon>
                <polygon id="Path-48" fill="#FAD081" mask="url(#mask-2)" points="130.272777 225.329787 114.983731 233.865957 98.936551 233.865957 94.387744 222.568085 88.1963124 219.178723 86.6800434 212.651064 88.8280911 202.482979 96.7885033 195.829787 101.716377 189.051064 100.45282 201.478723 96.1567245 208.131915 99.5683297 217.170213 105.127983 220.182979"></polygon>
                <polygon id="Path-55" fill="#FAD081" opacity="0.293973214" mask="url(#mask-2)" points="226.17679 159.425532 221.627983 161.93617 215.562907 170.597872 211.140456 170.221277 213.414859 172.857447 211.140456 176.37234 203.938178 179.510638 193.956074 178.631915 186.880152 174.865957 196.356833 183.653191 211.140456 180.012766"></polygon>
                <polygon id="Path-70" fill="#424242" opacity="0.293973214" mask="url(#mask-2)" points="127.872017 11.5489362 124.334056 0 122.186009 9.79148936 124.334056 13.306383 124.334056 16.8212766 122.186009 24.1021277 123.828633 28.9978723 124.334056 19.7085106 125.029013 16.8212766 125.471258 14.0595745"></polygon>
                <polygon id="Path-74" fill="#434343" opacity="0.293973214" mask="url(#mask-2)" points="7.20227766 11.2978723 9.35032538 18.3276596 10.9929501 20.0851064 12.0037961 23.8510638 18.8270065 26.8638298 18.068872 22.3446809 14.1518438 19.3319149 14.1518438 13.4319149 8.59219089 10.4191489"></polygon>
                <polygon id="Path-35" fill="#D7AA57" mask="url(#mask-2)" points="11.4983731 58.3723404 9.47668113 74.3148936 4.04338395 82.2234043 3.41160521 52.5978723"></polygon>
                <polygon id="Path-38" fill="#D7AA57" mask="url(#mask-2)" points="-0.126355748 121.891489 7.45498915 119.004255 14.9099783 128.042553 9.35032538 128.419149 0.75813449 127.665957"></polygon>
                <polygon id="Path-41" fill="#D7AA57" mask="url(#mask-2)" points="4.80151844 154.655319 9.60303688 156.66383 9.60303688 167.83617 17.058026 170.723404 9.60303688 170.723404 2.27440347 172.982979 2.65347072 157.668085"></polygon>
                <polygon id="Path-44" fill="#D7AA57" mask="url(#mask-2)" points="38.5385033 217.797872 45.1090022 225.204255 44.4772234 234.493617 36.2640998 228.593617"></polygon>
                <path d="M45.1090022,225.204255 L75.9398048,223.195745 L77.9614967,207.12766 C78.7208862,212.599871 79.4790207,217.370084 80.2359002,221.438298 C80.9927798,225.506512 81.87727,229.565377 82.8893709,233.614894 L44.6035792,234.368085 L45.1090022,225.204255 Z" id="Path-45" fill="#D7AA57" mask="url(#mask-2)"></path>
                <polygon id="Path-46" fill="#D7AA57" mask="url(#mask-2)" points="89.4598698 233.614894 87.9436009 218.92766 92.9978308 230.853191"></polygon>
                <polygon id="Path-47" fill="#D7AA57" mask="url(#mask-2)" points="94.387744 222.442553 105.001627 220.057447 118.016269 232.359574 98.5574837 232.987234"></polygon>
                <polygon id="Path-49" fill="#D7AA57" mask="url(#mask-2)" points="130.020065 225.204255 142.529284 236.753191 116.879067 232.861702"></polygon>
                <polygon id="Path-50" fill="#D7AA57" mask="url(#mask-2)" points="160.850868 228.593617 158.071041 222.568085 154.154013 217.421277 156.933839 200.976596 156.175705 187.419149 159.081887 202.859574 159.58731 211.646809 164.767896 220.434043 196.356833 225.204255 189.280911 234.995745"></polygon>
                <polygon id="Path-51" fill="#D7AA57" mask="url(#mask-2)" points="208.613341 223.321277 221.754338 229.974468 210.635033 216.291489"></polygon>
                <polygon id="Path-52" fill="#D7AA57" mask="url(#mask-2)" points="224.281453 193.068085 213.66757 195.704255 211.0141 195.704255 205.328091 200.348936 205.328091 211.019149 213.66757 212.023404 224.281453 202.985106"></polygon>
                <polygon id="Path-53" fill="#D7AA57" mask="url(#mask-2)" points="211.140456 180.138298 220.628643 177.324469 228.072126 175.117021 223.523319 188.046809 210.508677 192.440426"></polygon>
                <path d="M232.873644,118 C232.873644,118 231.146782,117.456028 227.693059,116.368085 L224.534165,106.074468 L218.7218,104.944681 L225.797722,103.689362 L226.429501,94.4 L232.11551,71.5531915 C232.620933,102.51773 232.873644,118 232.873644,118 Z" id="Path-58" fill="#D7AA57" mask="url(#mask-2)"></path>
                <polygon id="Path-62" fill="#D7AA57" mask="url(#mask-2)" points="220.617137 10.5446809 217.079176 15.3148936 224.155098 33.2659574 224.155098 53.8531915 227.94577 53.8531915 227.94577 22.3446809"></polygon>
                <polygon id="Path-68" fill="#D7AA57" mask="url(#mask-2)" points="168.558568 2.76170213 168.558568 8.66170213 188.901844 11.2978723 189.659978 6.15106383"></polygon>
                <polygon id="Path-72" fill="#D7AA57" mask="url(#mask-2)" points="70.2537961 5.77446809 44.2245119 5.77446809 33.7369848 3.76595745 61.1561822 -0.50212766"></polygon>
                <polygon id="Path-73" fill="#D7AA57" mask="url(#mask-2)" points="19.585141 5.77446809 18.8270065 9.66595745 14.2781996 13.306383 8.71854664 10.4191489"></polygon>
                <polygon id="Path-36" fill="#D7AA57" mask="url(#mask-2)" points="5.68600868 88.8765957 9.35032538 89.2531915 18.574295 92.6425532 9.98210412 92.6425532 4.42245119 93.2702128"></polygon>
                <polygon id="Path-37" fill="#D7AA57" mask="url(#mask-2)" points="4.42245119 93.2702128 8.84490239 101.053191 3.28524946 114.108511"></polygon>
                <polygon id="Path-42" fill="#D7AA57" mask="url(#mask-2)" points="13.5200651 181.142553 5.68600868 200.474468 4.92787419 216.919149 16.4262473 206.248936"></polygon>
                <polygon id="Path-54" fill="#FAD081" mask="url(#mask-2)" points="232.747289 156.412766 226.17679 159.425532 211.0141 180.012766 228.198482 174.865957"></polygon>
                <polygon id="Path-57" fill="#D7AA57" mask="url(#mask-2)" points="198.883948 117.748936 203.053688 116.995745 216.826464 117.748936 220.490781 120.385106 226.429501 122.142553 232.620933 122.519149 231.104664 140.595745 214.931128 122.142553"></polygon>
                <polygon id="Path-60" fill="#D7AA57" mask="url(#mask-2)" points="229.462039 55.6106383 225.165944 58.6234043 220.111714 57.6191489 224.155098 54.1042553 228.451193 54.1042553"></polygon>
                <polygon id="Path-61" fill="#D7AA57" mask="url(#mask-2)" points="221.754338 57.8702128 217.83731 59.1255319 208.486985 59.1255319 206.465293 57.2425532 203.053688 56.4893617 206.84436 56.4893617 209.118764 58.4978723 216.321041 57.8702128 221.754338 55.987234"></polygon>
                <polygon id="Path-64" fill="#D7AA57" mask="url(#mask-2)" points="209.497831 18.9553191 217.205531 15.3148936 213.920282 8.28510638"></polygon>
                <polygon id="Path-65" fill="#D7AA57" mask="url(#mask-2)" points="214.804772 10.293617 216.95282 15.3148936 220.996204 9.91702128"></polygon>
                <polygon id="Path-66" fill="#D7AA57" mask="url(#mask-2)" points="209.497831 18.8297872 209.497831 12.4276596 211.772234 9.41489362 212.277657 12.4276596"></polygon>
                <polygon id="Path-67" fill="#D7AA57" mask="url(#mask-2)" points="191.934382 10.6702128 188.901844 16.8212766 188.901844 11.1723404 189.91269 4.64468085 191.049892 5.0212766"></polygon>
                <polygon id="Path-69" fill="#D7AA57" mask="url(#mask-2)" points="151.500542 9.91702128 148.847072 16.5702128 148.847072 10.4191489 148.847072 4.26808511 149.47885 5.52340426"></polygon>
                <polygon id="Path-71" fill="#D7AA57" mask="url(#mask-2)" points="111.319414 3.3893617 97.420282 10.1680851 70.2537961 5.64893617 60.5244035 -0.878723404"></polygon>
                <path d="M144.451296,55.9658738 C146.389361,53.4355298 148.919046,56.4760238 149.735073,58.2513458 C151.489532,62.0264558 141.840009,59.3736758 144.451296,55.9658738 Z" id="Shape" fill="#D7AA57" fill-rule="nonzero" mask="url(#mask-2)"></path>
                <path d="M138.152651,40.8276439 C139.193086,38.6646079 142.232787,41.2765759 142.457195,42.5825599 C142.865208,45.9087379 136.989812,43.2559579 138.152651,40.8276439 Z" id="Shape" fill="#D7AA57" fill-rule="nonzero" mask="url(#mask-2)"></path>
                <path d="M134.687531,46.3230957 C136.360387,47.5474557 134.687531,50.1594237 133.341086,48.6289737 C132.627062,47.7719217 133.014675,45.0783297 134.687531,46.3230957 Z" id="Shape" fill="#D7AA57" fill-rule="nonzero" mask="url(#mask-2)"></path>
                <path d="M41.4738318,173.303862 C43.5139,172.405998 49.0832862,173.589546 45.247958,175.650552 C44.5543348,181.262202 38.2301234,174.650658 41.4738318,173.303862 Z" id="Shape" fill="#D7AA57" fill-rule="nonzero" mask="url(#mask-2)"></path>
                <path d="M50.6273603,167.366981 C50.7293638,167.020079 51.0149733,166.795613 51.0761753,166.326275 C51.1178742,165.609226 51.6924785,165.038511 52.4096171,165.001859 C53.1267558,164.965208 53.7565218,165.474369 53.8710688,166.183433 C54.3198838,169.325957 49.9541378,169.632047 50.6273603,167.366981 C50.6681617,167.224139 50.4437542,167.979161 50.6273603,167.366981 Z" id="Shape" fill="#D7AA57" fill-rule="nonzero" mask="url(#mask-2)"></path>
                <path d="M60.4675419,141.048276 C64.7924865,137.130324 67.8933902,145.41516 61.5079767,145.986528 C58.8966894,146.2314 59.2843024,142.129794 60.4675419,141.048276 Z" id="Shape" fill="#D7AA57" fill-rule="nonzero" mask="url(#mask-2)"></path>
                <path d="M84.3316013,156.797505 C85.4536388,154.614063 88.4117377,157.470903 88.4117377,158.736075 C88.1261282,164.021229 81.2918997,162.654027 84.3316013,156.797505 Z" id="Shape" fill="#D7AA57" fill-rule="nonzero" mask="url(#mask-2)"></path>
                <path d="M133.391117,193.819789 C136.063607,191.187415 139.16451,195.513487 137.185644,198.084643 C136.736829,205.451209 128.882567,198.247891 133.391117,193.819789 Z" id="Shape" fill="#D7AA57" fill-rule="nonzero" mask="url(#mask-2)"></path>
                <path d="M175.195184,170.661258 C175.317588,170.232732 178.989711,169.416492 178.806105,170.661258 C178.275687,174.742458 174.052746,174.926112 175.195184,170.661258 C175.439992,169.824612 175.031978,171.273438 175.195184,170.661258 Z" id="Shape" fill="#D7AA57" fill-rule="nonzero" mask="url(#mask-2)"></path>
                <path d="M171,181.892614 C171,178.219534 177.120205,180.505006 175.080136,183.565906 C173.611287,185.830972 171,184.014838 171,181.892614 Z" id="Shape" fill="#D7AA57" fill-rule="nonzero" mask="url(#mask-2)"></path>
                <path d="M61.0070269,69.6278061 C61.5056244,67.7714317 63.5415641,70.4867256 62.8629175,71.8997868 C61.8103229,74.0470856 58.2924406,71.8305191 61.0070269,69.6278061 C61.2009259,68.907422 60.2729806,70.2235084 61.0070269,69.6278061 Z" id="Shape" fill="#D7AA57" fill-rule="nonzero" mask="url(#mask-2)"></path>
            </g>
        </g>
    </g>
</svg>