<?xml version="1.0" encoding="UTF-8"?>
<svg width="223px" height="226px" viewBox="0 0 223 226" version="1.1" xmlns="http://www.w3.org/2000/svg" xmlns:xlink="http://www.w3.org/1999/xlink">
    <!-- Generator: Sketch 51.1 (57501) - http://www.bohemiancoding.com/sketch -->
    <title>Group 38</title>
    <desc>Created with Sketch.</desc>
    <defs>
        <path d="M7.26010147,11.1797872 L2.90404059,25.3648936 L1.93602706,36.4244681 L7.26010147,44.7191489 L2.90404059,50.4893617 C4.03338971,58.1829787 4.59806427,63.151773 4.59806427,65.3957447 C4.59806427,67.6397163 4.59806427,71.887234 4.59806427,78.1382979 L5.5660778,84.9904255 L9.92213868,86.9138298 L4.59806427,89.1978723 L2.90404059,108.912766 L4.59806427,110.595745 L0.121001691,116.726596 L8.71212177,120.212766 L1.08901522,122.256383 L1.08901522,142.692553 L4.59806427,147.981915 L2.90404059,158.560638 L8.71212177,161.806383 L1.93602706,165.532979 L5.5660778,190.657447 L5.5660778,207.246809 L26.3783687,222.153191 L34.8484871,218.546809 L42.713597,224.076596 L74.053035,223.114894 L74.053035,210.011702 L79.4981111,224.076596 L85.6691974,224.076596 L88.6942397,220.951064 L93.8973124,222.634043 L112.410571,222.153191 L135.642896,225.879787 L153.79315,218.546809 L181.260533,224.797872 L208.485914,223.595745 L212.47897,219.989362 L212.47897,203.520213 L214.172993,194.985106 L214.899004,185.368085 L214.172993,179.47766 L223.006117,149.544681 L220.465081,142.692553 L223.006117,112.759574 L221.191092,101.459574 L215.867017,100.37766 L220.465081,99.2957447 L223.006117,68.4010638 L219.376066,53.2542553 L214.172993,53.9755319 L218.166049,51.8117021 L218.166049,21.7585106 L214.172993,18.8734043 L211.147951,10.3382979 L205.823877,9.61702128 L203.040838,12.7425532 L203.040838,9.61702128 L183.317562,6.49148936 L182.349549,10.3382979 L181.260533,6.49148936 L161.779261,3.00531915 L143.266002,5.40957447 L143.266002,9.61702128 L142.176987,5.40957447 L119.186666,0.120212766 L105.87648,3.72659574 L59.5328321,0.120212766 L36.6635124,3.72659574 L33.0334617,3.72659574 L33.0334617,4.56808511 L19.2392689,5.40957447 L7.26010147,11.1797872 Z" id="path-1"></path>
        <path d="M87.7588031,0.250487047 C57.174318,2.92234889 36.6202285,9.76899485 26.0965347,20.7904249 C10.310994,37.3225701 27.083131,72.8917308 17.217168,106.456995 C7.35120508,140.022259 -9.91423007,160.061223 7.35120508,174.589472 C24.6166402,189.117721 57.6676161,163.568042 76.4129457,158.057327 C95.1582753,152.546612 132.648935,166.072912 165.69991,142.026156 C198.750886,117.979399 206.643657,104.453099 191.844712,78.4024458 C186.576917,69.1295211 178.192735,58.8249865 171.12619,48.3440001 C158.340518,29.3804968 146.193432,11.1019055 138.568512,6.26217618 C130.675742,1.25243524 113.739172,-0.751461142 87.7588031,0.250487047 Z" id="path-3"></path>
    </defs>
    <g id="Page-1" stroke="none" stroke-width="1" fill="none" fill-rule="evenodd">
        <g id="Group-38">
            <g id="Group-6-Copy-108">
                <g id="Path-33-+-Path-34-+-Path-39-+-Path-40-+-Path-43-+-Path-48-+-Path-55-+-Path-56-+-Path-59-+-Path-63-+-Path-70-+-Path-74-Mask">
                    <mask id="mask-2" fill="white">
                        <use xlink:href="#path-1"></use>
                    </mask>
                    <use id="Mask" fill="#BFAF84" xlink:href="#path-1"></use>
                    <polygon id="Path-32" fill="#C2B594" mask="url(#mask-2)" points="9.07512684 17.3106383 9.07512684 32.6978723 13.5521894 46.4021277 13.5521894 52.412766 10.6481488 56.3797872 9.07512684 71.406383 9.07512684 85.7117021 17.5452452 88.356383 9.07512684 88.356383 9.07512684 96.6510638 10.6481488 104.585106 7.01809809 113.841489 14.3992013 122.496809 9.07512684 123.218085 9.07512684 128.988298 13.5521894 143.053191 9.07512684 150.145745 9.07512684 160.003191 15.9722232 163.369149 9.07512684 163.369149 13.5521894 174.068085 15.9722232 197.990426 24.9263484 211.334043 36.9055158 208.929787 43.3186055 215.661702 72.8430181 213.858511 74.6580435 197.990426 76.8360739 212.295745 84.8221856 213.858511 84.8221856 210.011702 90.6302667 212.295745 100.068399 211.334043 124.994747 215.661702 151.736121 212.295745 187.310618 215.661702 199.531789 213.858511 201.346814 207.367021 204.61386 202.197872 204.61386 186.810638 201.346814 184.045745 202.314828 172.505319 216.593027 152.55 213.93099 143.053191 216.593027 128.146809 216.593027 117.207447 218.287051 111.67766 215.262009 101.940426 209.211924 100.618085 215.262009 98.9351064 216.593027 89.6787234 215.262009 62.8712766 211.510956 67.5595745 206.912892 62.8712766 196.74875 57.9425532 195.29673 54.3361702 198.442774 54.3361702 199.531789 56.3797872 206.912892 55.2978723 215.020005 51.9319149 215.020005 31.7361702 208.001907 14.906383 200.378801 18.512766 200.378801 12.0212766 183.922571 10.4585106 181.139532 15.9882979 181.139532 10.4585106 161.537258 8.05425532 144.960026 9.49680851 142.539992 15.9882979 142.539992 10.4585106 122.33271 11.1797872 117.250639 9.49680851 93.5343073 9.49680851 67.6399454 5.52978723 42.3505919 5.52978723 18.2712554 9.49680851 13.5521894 12.862766"></polygon>
                    <polygon id="Path-76" fill="#BFAF84" mask="url(#mask-2)" points="181.139532 13.4638298 177.146476 28.4904255 177.146476 37.0255319 166.377325 49.4074468 151.252114 56.6202128 144.355018 67.8 157.4232 93.1648936 171.822402 76.2148936 209.695931 74.6521277 211.389955 66.4776596 194.691721 53.3143617 182.954557 6.61170213"></polygon>
                    <polygon id="Path-75" fill="#BFAF84" mask="url(#mask-2)" points="16.9402368 88.7170213 24.3213399 90.4 48.8846833 89.5585106 76.7150722 105.426596 76.7150722 72.4882979 90.14626 56.5 79.9821179 29.5723404 64.3728997 20.1957447 61.8318642 14.0648936 55.4187746 8.53510638 24.3213399 0.120212766 -3.75105243 10.0978723 -1.69402368 48.4457447 4.1140575 86.793617"></polygon>
                    <polygon id="Path-31" fill="#BFAF84" mask="url(#mask-2)" points="17.0612385 99.4159574 65.5829167 120.212766 72.9640198 131.031915 90.14626 138.485106 105.15047 149.424468 96.5593496 183.805319 90.14626 199.432979 90.14626 213.137234 91.8402837 227.202128 0.726010147 222.51383 -0.96801353 91.962766"></polygon>
                    <polygon id="Path-33" fill="#4C3E41" opacity="0.293973214" mask="url(#mask-2)" points="2.05702875 36.3042553 9.19612853 32.6978723 15.9722232 39.0691489 20.9332926 45.0797872 18.029252 50.2489362 16.3352283 47.6042553 14.7622063 48.0851064 13.5521894 46.5223404 6.8970964 44.7191489"></polygon>
                    <polygon id="Path-34" fill="#4C3E41" opacity="0.293973214" mask="url(#mask-2)" points="3.26704566 50.2489362 13.5521894 52.5329787 23.5953298 62.8712766 31.4604397 65.756383 23.5953298 63.8329787 13.9151945 58.9042553 11.0111539 55.7787234"></polygon>
                    <polygon id="Path-39" fill="#434343" opacity="0.293973214" mask="url(#mask-2)" points="0.96801353 129.348936 9.19612853 128.868085 13.310186 131.873404 17.6662469 136.681915 19.2392689 129.709574 16.9402368 123.338298 8.83312346 122.97766 -0.242003382 122.13617"></polygon>
                    <polygon id="Path-40" fill="#424242" opacity="0.293973214" mask="url(#mask-2)" points="1.08901522 143.053191 13.310186 142.692553 19.2392689 146.659574 29.766416 146.178723 19.7232757 151.347872 9.07512684 149.905319 4.71906596 148.102128"></polygon>
                    <polygon id="Path-55" fill="#4C3E41" opacity="0.293973214" mask="url(#mask-2)" points="216.593027 152.670213 212.236966 155.074468 206.428885 163.369149 202.193826 163.008511 204.371857 165.532979 202.193826 168.898936 195.29673 171.904255 185.737596 171.062766 178.961501 167.456383 188.036628 175.871277 202.193826 172.385106"></polygon>
                    <polygon id="Path-70" fill="#4C3E41" opacity="0.293973214" mask="url(#mask-2)" points="122.453712 11.0595745 119.065664 0 117.008635 9.37659574 119.065664 12.7425532 119.065664 16.1085106 117.008635 23.0808511 118.581657 27.7691489 119.065664 18.8734043 119.731173 16.1085106 120.154679 13.4638298"></polygon>
                    <polygon id="Path-74" fill="#4C3E41" opacity="0.293973214" mask="url(#mask-2)" points="6.8970964 10.8191489 8.95412515 17.5510638 10.5271471 19.2340426 11.4951607 22.8404255 18.029252 25.7255319 17.3032418 21.3978723 13.5521894 18.512766 13.5521894 12.862766 8.228115 9.97765957"></polygon>
                    <polygon id="Path-35" fill="#4C3E41" mask="url(#mask-2)" points="11.0111539 55.8989362 9.07512684 71.1659574 3.87205412 78.7393617 3.26704566 50.3691489"></polygon>
                    <polygon id="Path-38" fill="#72585E" mask="url(#mask-2)" points="-0.121001691 116.726596 7.13909978 113.961702 14.2781996 122.617021 8.95412515 122.97766 0.726010147 122.256383"></polygon>
                    <polygon id="Path-41" fill="#4C3E41" mask="url(#mask-2)" points="4.59806427 148.102128 9.19612853 150.025532 9.19612853 160.724468 16.3352283 163.489362 9.19612853 163.489362 2.17803044 165.653191 2.54103552 150.987234"></polygon>
                    <polygon id="Path-44" fill="#4C3E41" mask="url(#mask-2)" points="36.9055158 208.569149 43.1976038 215.661702 42.5925953 224.557447 34.7274854 218.907447"></polygon>
                    <path d="M43.1976038,215.661702 L72.7220164,213.738298 L74.6580435,198.351064 C75.3852554,203.591402 76.1112656,208.159487 76.8360739,212.055319 C77.5608823,215.951151 78.4078942,219.83803 79.3771095,223.715957 L42.713597,224.437234 L43.1976038,215.661702 Z" id="Path-45" fill="#4C3E41" mask="url(#mask-2)"></path>
                    <polygon id="Path-46" fill="#4C3E41" mask="url(#mask-2)" points="85.6691974 223.715957 84.2171771 209.651064 89.0572448 221.071277"></polygon>
                    <polygon id="Path-47" fill="#4C3E41" mask="url(#mask-2)" points="90.3882634 213.017021 100.552405 210.732979 113.01558 222.51383 94.3813192 223.114894"></polygon>
                    <polygon id="Path-49" fill="#4C3E41" mask="url(#mask-2)" points="124.51074 215.661702 136.489908 226.721277 111.926564 222.994681"></polygon>
                    <polygon id="Path-50" fill="#4C3E41" mask="url(#mask-2)" points="154.035153 218.907447 151.373116 213.137234 147.622063 208.208511 150.284101 192.460638 149.55809 179.47766 152.341129 194.26383 152.825136 202.678723 157.786205 211.093617 188.036628 215.661702 181.260533 225.038298"></polygon>
                    <polygon id="Path-51" fill="#4C3E41" mask="url(#mask-2)" points="199.773792 213.858511 212.357968 220.229787 201.709819 207.126596"></polygon>
                    <polygon id="Path-52" fill="#4C3E41" mask="url(#mask-2)" points="214.778002 184.887234 204.61386 187.411702 202.072824 187.411702 196.627748 191.859574 196.627748 202.07766 204.61386 203.039362 214.778002 194.384043"></polygon>
                    <polygon id="Path-53" fill="#4C3E41" mask="url(#mask-2)" points="202.193826 172.505319 211.279972 169.810721 218.408053 167.696809 214.051992 180.078723 201.588818 184.28617"></polygon>
                    <path d="M223.006117,113 C223.006117,113 221.352427,112.479078 218.045048,111.437234 L215.020005,101.579787 L209.453928,100.497872 L216.230022,99.2957447 L216.835031,90.4 L222.280107,68.5212766 C222.764114,98.1737589 223.006117,113 223.006117,113 Z" id="Path-58" fill="#4C3E41" mask="url(#mask-2)"></path>
                    <polygon id="Path-62" fill="#72585E" mask="url(#mask-2)" points="211.268953 10.0978723 207.880906 14.6659574 214.657 31.856383 214.657 51.5712766 218.287051 51.5712766 218.287051 21.3978723"></polygon>
                    <polygon id="Path-68" fill="#4C3E41" mask="url(#mask-2)" points="161.416256 2.64468085 161.416256 8.29468085 180.897528 10.8191489 181.623539 5.89042553"></polygon>
                    <polygon id="Path-72" fill="#4C3E41" mask="url(#mask-2)" points="67.2769403 5.52978723 42.3505919 5.52978723 32.3074516 3.60638298 58.5648186 -0.480851064"></polygon>
                    <polygon id="Path-73" fill="#4C3E41" mask="url(#mask-2)" points="18.7552621 5.52978723 18.029252 9.25638298 13.6731911 12.7425532 8.3491167 9.97765957"></polygon>
                    <polygon id="Path-36" fill="#4C3E41" mask="url(#mask-2)" points="5.44507611 85.1106383 8.95412515 85.4712766 17.7872486 88.7170213 9.55913361 88.7170213 4.23505919 89.3180851"></polygon>
                    <polygon id="Path-37" fill="#4C3E41" mask="url(#mask-2)" points="4.23505919 89.3180851 8.47011839 96.7712766 3.14604397 109.273404"></polygon>
                    <polygon id="Path-57" fill="#4C3E41" mask="url(#mask-2)" points="190.456662 112.759574 194.449718 112.038298 207.638902 112.759574 211.147951 115.284043 216.835031 116.967021 222.764114 117.32766 221.312093 134.638298 205.823877 116.967021"></polygon>
                    <polygon id="Path-60" fill="#72585E" mask="url(#mask-2)" points="219.739071 53.2542553 215.625014 56.1393617 210.784946 55.1776596 214.657 51.8117021 218.771058 51.8117021"></polygon>
                    <polygon id="Path-61" fill="#72585E" mask="url(#mask-2)" points="212.357968 55.4180851 208.606916 56.6202128 199.652791 56.6202128 197.716763 54.8170213 194.449718 54.0957447 198.079769 54.0957447 200.257799 56.0191489 207.154895 55.4180851 212.357968 53.6148936"></polygon>
                    <polygon id="Path-64" fill="#D7AA57" mask="url(#mask-2)" points="200.620804 18.1521277 208.001907 14.6659574 204.855863 7.93404255"></polygon>
                    <polygon id="Path-65" fill="#D7AA57" mask="url(#mask-2)" points="205.702875 9.85744681 207.759904 14.6659574 211.631958 9.49680851"></polygon>
                    <polygon id="Path-66" fill="#D7AA57" mask="url(#mask-2)" points="200.620804 18.0319149 200.620804 11.9010638 202.798835 9.01595745 203.282841 11.9010638"></polygon>
                    <polygon id="Path-67" fill="#72585E" mask="url(#mask-2)" points="183.801569 10.2180851 180.897528 16.1085106 180.897528 10.6989362 181.865542 4.44787234 182.954557 4.80851064"></polygon>
                    <polygon id="Path-69" fill="#4C3E41" mask="url(#mask-2)" points="145.081028 9.49680851 142.539992 15.8680851 142.539992 9.97765957 142.539992 4.08723404 143.145001 5.2893617"></polygon>
                    <polygon id="Path-71" fill="#4C3E41" mask="url(#mask-2)" points="106.60249 3.24574468 93.2923039 9.73723404 67.2769403 5.40957447 57.9598101 -0.841489362"></polygon>
                </g>
            </g>
            <path d="M98.3380069,18.2739265 C66.8025035,23.3718771 45.3272895,31.947235 33.9123649,44 C16.7899781,62.0791475 32.5238326,97.712605 21.8223408,134.418753 C11.120849,171.124901 1.02295879,186.112264 19.7505694,202 C38.47818,217.887736 65.698457,196.87399 86.0312914,190.847607 C106.364126,184.821225 147.029794,199.613255 182.879792,173.316313 C218.729789,147.019371 227.290983,132.227341 211.238745,103.738988 C205.524831,93.5983449 196.430609,82.3295593 188.765612,70.8678102 C174.897148,50.1297891 161.721348,30.1407709 153.45069,24.8481619 C144.889496,19.3696324 126.518602,17.1782206 98.3380069,18.2739265 Z" id="Mask" fill="#000000" opacity="0.230691964"></path>
            <g id="Path-170-+-Path-162-+-Path-163-+-Path-165-+-Path-166-+-Path-167-+-Path-168-+-Path-169-Mask" transform="translate(20.000000, 18.000000)">
                <mask id="mask-4" fill="white">
                    <use xlink:href="#path-3"></use>
                </mask>
                <use id="Mask" fill="#947D6A" xlink:href="#path-3"></use>
                <path d="M178.619681,59.7508532 C173.04344,72.4607509 165.335106,78.1467577 155.494681,76.8088737 C145.654255,75.4709898 136.633865,71.1228669 128.433511,63.7645051 L107.768617,68.3754266 L85.1356383,62.2593857 C67.4228723,53.2286689 53.9742908,43.8634812 44.7898936,34.1638225 C35.6054965,24.4641638 21.0088652,25.3003413 1,36.6723549 L49.7101064,-0.955631399 L81.6914894,-14 L138.273936,-11.4914676 L166.81117,18.6109215 L186,59.7508532 L178.619681,59.7508532 Z" id="Path-170" fill="#9E917B" mask="url(#mask-4)"></path>
                <path d="M31.6776915,181.529965 C15.1465749,197.111867 2.7482374,193.465039 -5.51732093,170.58948 C-13.7828793,147.713921 -7.33574376,126.827542 13.8240856,107.930341 C19.4446652,111.908699 26.3877342,111.908699 34.6532925,107.930341 C47.05163,101.962804 57.962167,97.984446 62.921502,103.951983 C67.880837,109.91952 54.4906325,111.411404 48.043497,140.2545 C43.7454067,159.483231 38.2901382,173.241719 31.6776915,181.529965 Z" id="Path-162" fill="#72585E" mask="url(#mask-4)"></path>
                <path d="M15.7010119,38.0295706 C18.6576319,39.5284256 29.0058019,47.522319 31.4696519,53.0181207 C33.9335019,58.5139224 35.9045819,68.5062891 48.2238318,70.5047625 C60.5430818,72.5032358 66.9490918,72.5032358 67.9346318,76.9998009 C68.9201718,81.4963659 58.5720018,82.9952209 49.7021418,88.4910226 C40.8322819,93.9868243 29.4985719,102.480336 17.6720919,97.4841527 C5.84561195,92.4879693 12.7443919,36.5307156 15.7010119,38.0295706 Z" id="Path-163" fill="#72585E" mask="url(#mask-4)"></path>
                <path d="M54.9388943,3.54842613 C51.3540252,11.2425941 58.0349176,17.7659103 74.9815713,23.118375 C100.401552,31.1470719 100.401552,44.1937045 108.223084,41.6847367 C116.044617,39.1757689 94.5354025,19.6058201 102.845781,9.56994885 C108.386033,2.87936805 113.437439,-3.64394824 118,-10 L64.2269641,-3.47668372 L54.9388943,3.54842613 Z" id="Path-165" fill="#4C3E41" mask="url(#mask-4)"></path>
                <path d="M62.5897644,168 C60.623883,158.609251 63.5727051,150.392345 71.4362307,143.349284 C83.2315191,132.784691 94.0438668,130.269312 97.4841592,116.183188 C100.924452,102.097064 100.924452,93.0416993 109.279448,92.0355476 C117.634444,91.0293959 123.040617,111.655506 133.852965,119.201643 C144.665313,126.747781 149.088546,124.232402 163.341186,124.232402 C172.842946,124.232402 179.395884,132.113923 183,147.876966 L62.5897644,168 Z" id="Path-166" fill="#72585E" mask="url(#mask-4)"></path>
                <path d="M195.296813,79.6654163 C189.685675,77.6299075 184.569636,77.4602818 179.948699,79.1565391 C173.017292,81.7009251 174.007493,86.28082 162.125082,86.7896972 C150.242671,87.2985744 151.727972,90.8607148 156.678977,94.9317325 C161.629982,99.0027501 178.958498,112.233558 202.72332,96.4583641 C218.566535,85.9415685 216.091033,80.3439193 195.296813,79.6654163 Z" id="Path-167" fill="#4C3E41" mask="url(#mask-4)"></path>
                <path d="M139.583352,6 C141.549611,26.0904684 141.549611,40.8234786 139.583352,50.1990305 C136.633963,64.2623584 145.48213,62.2533115 152.364038,57.2306944 C159.245946,52.2080773 156.296557,48.6922454 168.094113,47.6877219 C175.959151,47.0180397 177.106136,39.9863757 171.535067,26.5927301 L139.583352,6 Z" id="Path-168" fill="#72585E" mask="url(#mask-4)"></path>
                <path d="M63.0373901,106.934155 C59.9695057,105.891917 59.5765219,98.368018 67.4870779,89.8018809 C75.3976339,81.2357438 75.8920437,85.2668671 77.8696827,76.7007301 C79.8473217,68.134593 79.3529119,61.5840176 88.7466972,61.0801272 C98.1404825,60.5762368 106.545448,65.6151409 112.478365,63.0956888 C118.411282,60.5762368 119.894512,53.5217709 126.321838,54.0256614 C132.749165,54.5295518 132.254755,62.5917984 138.682082,65.1112505 C145.109409,67.6307026 159.941701,69.6462642 158.952882,76.7007301 C157.964062,83.7551959 140.659721,74.181278 137.198853,71.6618259 C133.737985,69.1423738 127.805068,67.6307026 121.872151,69.6462642 C115.939234,71.6618259 89.7355167,89.2979905 82.3193704,92.8252234 C74.9032242,96.3524563 66.1052746,107.976393 63.0373901,106.934155 Z" id="Path-169" fill="#C2B594" mask="url(#mask-4)"></path>
                <path d="M100,156.885529 C102.314897,150.474682 104.960494,145.413487 107.93679,141.701944 C112.401235,136.134629 109.424938,125 113.889383,125 C118.353827,125 136.707654,135.62851 140.676049,152.330454 C143.321646,163.465083 129.762963,164.983441 100,156.885529 Z" id="Path-161" fill="#4C3E41" mask="url(#mask-4)"></path>
            </g>
        </g>
    </g>
</svg>