<?xml version="1.0" encoding="UTF-8"?>
<svg width="211px" height="236px" viewBox="0 0 211 236" version="1.1" xmlns="http://www.w3.org/2000/svg" xmlns:xlink="http://www.w3.org/1999/xlink">
    <!-- Generator: Sketch 51.1 (57501) - http://www.bohemiancoding.com/sketch -->
    <title>Asset 1</title>
    <desc>Created with Sketch.</desc>
    <defs>
        <linearGradient x1="0%" y1="0%" x2="100%" y2="0%" id="linearGradient-1">
            <stop stop-color="#EFBD50" offset="0%"></stop>
            <stop stop-color="#F4BC71" offset="25%"></stop>
            <stop stop-color="#C64200" offset="50%"></stop>
            <stop stop-color="#9B1600" offset="75%"></stop>
            <stop stop-color="#AA00CE" offset="100%"></stop>
        </linearGradient>
        <linearGradient x1="89.26979%" y1="8.44961762%" x2="33.5726313%" y2="87.7597013%" id="linearGradient-2">
            <stop stop-color="#5FB6BA" offset="0%"></stop>
            <stop stop-color="#2D7D80" offset="100%"></stop>
        </linearGradient>
        <linearGradient x1="0.0101996574%" y1="49.9690348%" x2="100%" y2="49.9690348%" id="linearGradient-3">
            <stop stop-color="#3C8C8F" offset="0%"></stop>
            <stop stop-color="#4F1657" offset="100%"></stop>
        </linearGradient>
        <linearGradient x1="0%" y1="50%" x2="100%" y2="50%" id="linearGradient-4">
            <stop stop-color="#45999D" offset="0%"></stop>
            <stop stop-color="#327B7D" offset="100%"></stop>
        </linearGradient>
        <linearGradient x1="0%" y1="50%" x2="100%" y2="50%" id="linearGradient-5">
            <stop stop-color="#5FB6BA" offset="0%"></stop>
            <stop stop-color="#206D70" offset="100%"></stop>
        </linearGradient>
        <linearGradient x1="0%" y1="50.0067195%" x2="100%" y2="50.0067195%" id="linearGradient-6">
            <stop stop-color="#5FB6BA" offset="0%"></stop>
            <stop stop-color="#286F73" offset="100%"></stop>
        </linearGradient>
        <linearGradient x1="0.00438816007%" y1="49.9887703%" x2="99.9678795%" y2="49.9887703%" id="linearGradient-7">
            <stop stop-color="#FFFFFF" offset="0%"></stop>
            <stop stop-color="#FFFFFF" offset="100%"></stop>
        </linearGradient>
    </defs>
    <g id="Page-1" stroke="none" stroke-width="1" fill="none" fill-rule="evenodd">
        <g id="Artboard-Copy" transform="translate(-252.000000, -1169.000000)" fill-rule="nonzero">
            <g id="Asset-1" transform="translate(252.500000, 1169.000000)">
                <g id="Group" opacity="0.7" transform="translate(19.000000, 95.000000)" fill="url(#linearGradient-1)">
                    <path d="M12.9035014,0.305 L0.127086835,0.305" id="Shape"></path>
                </g>
                <polygon id="Shape" fill="#6B2D25" points="155.589291 153 108 159.788686 126.882298 171 171 164.8802"></polygon>
                <path d="M183,190 C183,205.173313 173.497376,216 161.162713,216 C147.446567,216 136,210.38727 136,190 C136,165.91411 148.82805,164 161.162713,164 C173.497376,164 183,174.677147 183,190 Z" id="Shape" fill="#2D2D2D"></path>
                <ellipse id="Oval" fill="#3D3D3D" cx="167.5" cy="189.5" rx="14.5" ry="22.5"></ellipse>
                <path d="M177,189 C177,195.073213 173.977542,200 169.710543,200 C165.443543,200 162,195.073213 162,189 C162,182.926787 165.452901,178 169.75733,178 C174.061759,178 177,182.926787 177,189 Z" id="Shape" fill="#934538"></path>
                <path d="M175,190.443355 C175,195.459049 172.127584,201 168.19886,201 C164.270135,201 162,196.591957 162,190.443355 C162,184.294752 164.270135,180 168.19886,180 C171.673557,180 175,185.025993 175,190.443355 Z" id="Shape" fill="#AF5443"></path>
                <path d="M175,190.000436 C175,193.920094 172.086022,195 170.236559,195 C167.634409,195 166,192.740197 166,190.000436 C166,187.260675 167.634409,185.000873 170.236559,185.000873 C172.139785,184.960876 175,186.29076 175,190.000436 Z" id="Shape" fill="#934538"></path>
                <path d="M174,189.5 C174,192.221127 172.699088,193 171.884498,193 C170.668693,193 170,191.432394 170,189.5 C170,187.567606 170.729483,186 171.884498,186 C172.723404,186 174,186.926761 174,189.5 Z" id="Shape" fill="#AF5443"></path>
                <path d="M174,182.246589 C172.877305,180.445259 170.832721,177.16538 167.464635,178.196199 C164.096549,179.227018 162.353177,182.225764 161.422161,186.005434 C160.491145,189.785103 161.075312,196.605168 163.421106,199 C160.408997,191.440661 162.2619,187.129963 163.78621,184.422762 C165.31052,181.715561 167.546784,180.882576 170.175534,180.9034 L174,182.246589 Z" id="Shape" fill="#0B0A0C" opacity="0.2"></path>
                <ellipse id="Oval" fill="#2D2D2D" cx="101.5" cy="185" rx="22.5" ry="26"></ellipse>
                <ellipse id="Oval" fill="#3D3D3D" cx="107.5" cy="186.5" rx="14.5" ry="22.5"></ellipse>
                <ellipse id="Oval" fill="#2D2D2D" cx="58" cy="187.5" rx="26" ry="28.5"></ellipse>
                <ellipse id="Oval" fill="#3D3D3D" cx="66.5" cy="188" rx="18.5" ry="26"></ellipse>
                <path d="M75,188 C75,195.19 71.3699164,201 66.2557103,201 C61.1415042,201 57,195.17 57,188 C57,180.83 61.1415042,175 66.2557103,175 C71.3699164,175 75,180.82 75,188 Z" id="Shape" fill="#303030"></path>
                <g id="Group" transform="translate(68.000000, 28.000000)">
                    <path d="M125.982575,26.1117122 C150.400318,69.4252481 141.806143,112.539687 133.558108,137.516396 C105.431716,136.700099 62.589405,131.145295 33.0883402,90.1711476 C38.774935,55.6278312 36.3025025,51.9445381 62.8564277,33.6375759 C89.4103529,15.3306137 92.011352,15.7088979 125.982575,26.1117122 Z" id="Shape" fill="url(#linearGradient-2)"></path>
                    <g opacity="0.3" transform="translate(53.136171, 37.212344)" fill="#FFFFFF" id="Shape">
                        <path d="M88.8974353,41.0129882 C88.8974353,41.0129882 92.5857482,78.9668621 70.2547377,99.6430777 L63.0684714,99.1880153 C65.5684169,96.3367279 89.055671,81.03147 88.8974353,41.0129882 Z"></path>
                        <path d="M87.295299,22.2182385 C87.295299,22.2182385 88.5710742,60.1063832 38.8949601,97.8153407 C14.6849009,116.201942 46.0946835,101.269672 46.0946835,101.269672 C46.0946835,101.269672 87.4535347,62.2367203 87.295299,22.2182385 Z"></path>
                        <path d="M79.235169,0.1582993 C79.235169,0.1582993 81.5493658,49.9325304 10.7487883,83.9382851 C-16.6259845,97.088637 17.0485463,88.3781465 17.0485463,88.3781465 C17.0485463,88.3781465 77.5736943,58.762479 79.235169,0.1582993 Z"></path>
                    </g>
                    <g opacity="0.2" transform="translate(17.801514, 3.884200)" fill="#0B0A0C">
                        <path d="M82.3787549,84.5846692 C56.7247951,102.274431 27.9852395,104.872646 18.0955094,90.3883446 C8.20577938,75.9040433 21.0624285,49.8223462 46.6966088,32.1325845 C72.3307891,14.4428227 98.3407792,7.74321122 108.20084,22.1777382 C118.060901,36.6122653 108.032715,66.9048623 82.3787549,84.5846692 Z" id="Shape"></path>
                        <g id="Oval">
                            <ellipse transform="translate(64.533973, 58.373082) rotate(-34.410000) translate(-64.533973, -58.373082) " cx="64.5339728" cy="58.3730815" rx="56.3022333" ry="31.7957788"></ellipse>
                            <ellipse opacity="0.4" transform="translate(62.777410, 55.050285) rotate(-32.880000) translate(-62.777410, -55.050285) " cx="62.7774098" cy="55.0502847" rx="56.0648797" ry="28.7993701"></ellipse>
                        </g>
                    </g>
                    <ellipse id="Oval" fill="#DC7E68" transform="translate(79.536248, 58.152203) rotate(-34.410000) translate(-79.536248, -58.152203) " cx="79.5362478" cy="58.1522028" rx="56.3022333" ry="31.7957788"></ellipse>
                    <g transform="translate(14.190758, 0.000000)" id="Oval">
                        <ellipse fill="#6A2419" transform="translate(65.345490, 58.152203) rotate(-34.410000) translate(-65.345490, -58.152203) " cx="65.3454901" cy="58.1522028" rx="56.3022333" ry="31.7957788"></ellipse>
                        <ellipse fill="#DB5501" transform="translate(63.595967, 54.839399) rotate(-32.880000) translate(-63.595967, -54.839399) " cx="63.5959673" cy="54.8393985" rx="56.0648797" ry="28.7993701"></ellipse>
                    </g>
                    <path d="M93.2574579,26.8682805 C85.8797193,27.027558 78.1657299,35.3995837 68.8693836,41.8005498 C59.5730373,48.2015159 52.8282414,56.1255735 50.0788965,63.0043723 L44.5604271,66.8270332 L50.8898543,78.3149258 C56.0028448,85.6616023 72.6472605,80.7837276 88.1939161,70.3510488 C106.984403,57.6685747 111.741363,40.6358328 106.756939,33.1995627 C106.74705,33.1398336 103.522998,26.5895448 93.2574579,26.8682805 Z" id="Shape" fill="#0B0A0C" opacity="0.1"></path>
                    <path d="M96.7584224,24.7279885 L91.4377476,28.4212365 C84.060009,28.580514 74.3384043,32.0945747 65.0321683,38.5254054 C55.7259323,44.9562361 48.9910262,52.8504291 46.2416812,59.7292279 L40.7232118,63.5518888 L46.1526736,71.5157658 L46.3405785,71.3863528 C51.453569,78.7330293 68.0287565,76.0750854 83.4171765,65.413445 C98.8055965,54.7518047 107.201977,40.1281356 102.207664,32.6918655 L96.7584224,24.7279885 Z" id="Shape" fill="#6A2419"></path>
                    <ellipse id="Oval" fill="#F89309" transform="translate(68.897750, 44.198078) rotate(-34.520000) translate(-68.897750, -44.198078) " cx="68.8977499" cy="44.1980778" rx="33.9118844" ry="14.3150689"></ellipse>
                    <path d="M85.1874382,31.8656133 C89.6180373,36.9425849 82.9325798,44.9064618 76.5240347,49.0576327 C68.6122506,54.1346043 58.1785854,54.3934303 55.4490199,52.2431835 C48.1503991,46.4693727 54.9940923,36.3851135 62.846538,31.238458 C70.6989837,26.0918025 81.201877,27.286384 85.1874382,31.8656133 Z" id="Shape" fill="#0B0A0C" opacity="0.2"></path>
                    <polygon id="Shape" fill="#6A2419" points="61.4817552 48.7888519 77.4042206 0.0698344451 85.0984306 8.16312442 72.3901275 42.6666214"></polygon>
                    <polygon id="Shape" fill="#3C8C8F" points="61.4817552 48.7888519 77.4042206 0.0698344451 72.3604583 3.19565616 60.2158698 44.7073649"></polygon>
                    <polygon id="Shape" fill="#6A2419" points="41.484721 30.4122057 77.4042206 0.0698344451 85.0984306 8.16312442 45.3021569 35.0611189"></polygon>
                    <polygon id="Shape" fill="#3C8C8F" points="41.484721 30.4122057 77.4042206 0.0698344451 70.7187631 1.52324199 41.15836 24.3696141"></polygon>
                    <g transform="translate(49.695722, 24.789377)">
                        <path d="M31.4764858,6.64817814 C35.3235908,12.2029823 30.6556382,18.6935421 22.8130822,23.8401976 C14.9705263,28.9868531 6.98951412,29.2456791 3.81491077,26.2293607 C-2.91010568,19.7885751 0.442512815,8.44005046 8.28506876,3.33321434 C16.1276247,-1.77362177 26.1657007,-1.00709861 31.4764858,6.64817814 Z" id="Shape" fill="#6A2419"></path>
                        <g transform="translate(0.000000, 2.281914)">
                            <path d="M13.7837587,5.67034939 C9.38453719,12.1999054 8.17628173,19.6071341 11.4893413,26.9239461 C14.8024009,34.240758 10.8069499,31.2941236 10.8069499,31.2941236 C10.8069499,31.2941236 0.205159294,20.6723026 3.47865995,9.24413918 C5.8324157,1.07121044 11.0344137,0.553558432 17.7198712,0.215093661 C18.7796691,0.161996221 20.4022289,0.104567477 22.5875504,0.0428074293 C18.322089,1.414157 15.3874918,3.29000432 13.7837587,5.67034939 Z" id="Shape" fill="#77342B"></path>
                            <polygon id="Shape" fill="#DC7E68" points="0.0073646926 30.7963813 23.6537093 9.92106873 20.2714216 29.3827931 7.81036171 34.9674618"></polygon>
                            <polygon id="Shape" fill="#0B0A0C" opacity="0.2" points="0.0073646926 30.7963813 23.6537093 9.92106873 20.2714216 29.3827931 7.81036171 34.9674618"></polygon>
                            <ellipse id="Oval" fill="#2D6E71" cx="14.5155987" cy="15.794428" rx="8.60406516" ry="8.66071621"></ellipse>
                        </g>
                    </g>
                    <path d="M62.4509488,33.1398336 C62.4509488,33.1398336 72.5088043,36.544391 74.8922292,46.8974311 L84.0698987,50.4114918 L86.1961907,63.3527919 C86.1961907,63.3527919 96.0859207,68.9175509 96.0859207,69.4750223 C96.0859207,70.0324937 89.6477065,81.2814699 89.6477065,81.2814699 L93.949739,86.6073127 L96.7089737,100.544097 L100.961558,103.082583 L105.046016,124.057444 L110.742501,125.849316 L121.967344,130.966107 C121.967344,130.966107 126.249597,130.189629 129.048391,130.966107 C131.847185,131.742585 130.818653,136.759828 130.818653,136.759828 L88.8861973,147.988894 C88.8861973,147.988894 27.4808633,95.8055906 27.2138406,93.9241246 C26.9468179,92.0426587 0.0170828848,49.5155556 0.0170828848,49.5155556 L62.4509488,33.1398336 Z" id="Shape" fill="#0B0A0C" opacity="0.2"></path>
                </g>
                <path d="M68.691536,185.009793 L127,189.363653 L127,198 L68.0463795,191.219397 C66.2336227,191.036949 64.8963322,189.588759 65.0063238,187.927236 C65.0637231,187.091735 65.4862764,186.312256 66.1791548,185.76373 C66.8720331,185.215205 67.7772062,184.943572 68.691536,185.009793 Z" id="Shape" fill="url(#linearGradient-3)"></path>
                <g id="Group-7" transform="translate(92.000000, 179.000000)">
                    <path d="M52,28.5 C52,45.2953448 40.7508998,57 26.2511839,57 C11.7514681,57 0,44.2241379 0,28.5 C0,12.7758621 11.7514681,0 26.2511839,0 C40.7508998,0 52,11.852069 52,28.5 Z" id="Shape" fill="#2D2D2D"></path>
                    <ellipse id="Oval" fill="#3D3D3D" cx="33.71875" cy="28.5" rx="18.28125" ry="26.0571429"></ellipse>
                    <path d="M43.0625,28.5 C43.0625,35.7058022 39.4576253,41.5285714 34.3789345,41.5285714 C29.3002437,41.5285714 25.1875,35.6857582 25.1875,28.5 C25.1875,21.3142418 29.3002437,15.4714286 34.3789345,15.4714286 C39.4576253,15.4714286 43.0625,21.3042198 43.0625,28.5 Z" id="Shape" fill="#934538"></path>
                    <path d="M40.625,28.4401575 C40.625,33.8858268 37.2151894,39.9 32.5475812,39.9 C27.8799729,39.9 25.1875,35.1225722 25.1875,28.4401575 C25.1875,21.7577428 27.8799729,17.1 32.5475812,17.1 C36.6747295,17.1 40.625,22.555643 40.625,28.4401575 Z" id="Shape" fill="#AF5443"></path>
                    <path d="M39.8125,27.2789284 C39.8125,31.3911542 36.7041047,32.5714286 34.6318411,32.5714286 C31.823924,32.5714286 30.0625,30.2015126 30.0625,27.2789284 C30.0625,24.3563442 31.823924,21.9864282 34.6318411,21.9864282 C36.7351886,21.9489592 39.8125,23.3821495 39.8125,27.2789284 Z" id="Shape" fill="#934538"></path>
                    <path d="M39,28.5 C39,31.6451786 37.6965241,32.5714286 36.8275401,32.5714286 C35.6652741,32.5714286 34.9375,30.7596429 34.9375,28.5 C34.9375,26.2403571 35.6652741,24.4285714 36.8275401,24.4285714 C37.729111,24.4489286 39,25.5176786 39,28.5 Z" id="Shape" fill="#AF5443"></path>
                    <path d="M40.625,19.9162971 C39.2979879,18.0299756 36.8570605,14.5976482 32.8760242,15.6769353 C28.8949878,16.7562224 26.7930781,19.8968505 25.6888491,23.8445131 C24.58462,27.7921758 25.2723416,34.9290831 28.0716592,37.4571429 C24.4877578,29.5520943 26.6962159,25.0307566 28.4978528,22.2401675 C30.2994897,19.4495784 32.9728864,18.5355876 36.130594,18.5647575 L40.625,19.9162971 Z" id="Shape" fill="#0B0A0C" opacity="0.2"></path>
                </g>
                <polygon id="Shape" fill="#5FB6BA" points="85.8900709 4 85.5531915 4 83 50.9014882 88 51"></polygon>
                <path d="M106,62.2529644 C106,69.2885375 95.9275519,75 83.5,75 C71.0724481,75 61,69.298419 61,62.2529644 C61,55.2075099 71.0724481,45 83.5,45 C95.9275519,45 106,55.2075099 106,62.2529644 Z" id="Shape" fill="#50A5A9"></path>
                <g id="Group" transform="translate(82.000000, 0.000000)">
                    <ellipse id="Oval" fill="#50A5A9" cx="3.95962" cy="3.37142857" rx="2.475585" ry="2.51642857"></ellipse>
                    <ellipse id="Oval" fill="#C7FCFF" opacity="0.1" transform="translate(3.746415, 2.786744) rotate(-19.380000) translate(-3.746415, -2.786744) " cx="3.74641467" cy="2.78674394" rx="2.493855" ry="2.04285714"></ellipse>
                    <ellipse id="Oval" fill="#96F3F7" opacity="0.2" transform="translate(3.144492, 2.352830) rotate(-42.090000) translate(-3.144492, -2.352830) " cx="3.14449182" cy="2.35282977" rx="1.799595" ry="1.44857143"></ellipse>
                </g>
                <polygon id="Shape" fill="#86382C" points="136.474576 158 132 150 156 152.526316"></polygon>
                <polygon id="Shape" fill="#8D3600" points="127.831461 55.4361851 83 46 83.7435558 67.1195652 128 75"></polygon>
                <polygon id="Shape" fill="#7C352C" points="91.3001745 77 43 72.1506024 83.8534031 67 128 74.6706827"></polygon>
                <polygon id="Shape" fill="#DC7E68" points="43.338901 54.8865821 82.2737836 46 83 66.7620146 43 72"></polygon>
                <polygon id="Shape" fill="url(#linearGradient-4)" points="43 54.6553702 58.9622419 51 59 68.7320125 43 70"></polygon>
                <polygon id="Shape" fill="#DB5501" points="142.206897 99 118 133.816715 129.039604 140 144 139.098901"></polygon>
                <polygon id="Shape" fill="#6A2419" points="135.804121 159 128 141.47392 130.205882 134 143 139"></polygon>
                <polygon id="Shape" fill="#FF8C44" points="142 99 117.485149 86.9375865 103 75 129.277228 89.0527438 142 98.6148148"></polygon>
                <polygon id="Shape" fill="#B24501" points="103.44898 65 103 75.7755102 125 87 124.216327 71.0136745"></polygon>
                <g id="Group" transform="translate(43.000000, 50.000000)">
                    <polygon id="Shape" fill="#934538" points="0.0771206196 4.53425877 3.79793114 4.84772132 3.79793114 20.0212677 0.0771206196 19.7078051"></polygon>
                    <polygon id="Shape" fill="#FFFFFF" opacity="0.15" points="0.0771206196 4.53425877 3.79793114 4.84772132 3.79793114 20.0212677 0.0771206196 19.7078051"></polygon>
                    <polygon id="Shape" fill="#934538" points="0.638752396 4.53425877 3.55723181 4.84772132 18.2098037 1.8012572 18.2098037 0.233944474"></polygon>
                    <polygon id="Shape" fill="#161616" points="5.39256422 4.18161341 4.88107814 21.8922472 5.29227283 21.8922472"></polygon>
                    <polygon id="Shape" fill="#161616" points="10.3068423 3.06490309 10.3068423 21.8922472 10.3330474 21.8922472"></polygon>
                    <polygon id="Shape" fill="#161616" points="15.8830435 2.13431116 14.9403044 21.4416448 15.8830435 21.4416448"></polygon>
                    <polygon id="Shape" fill="#161616" points="12.162233 2.82980618 12.8442144 2.82980618 12.162233 20.9812467"></polygon>
                    <polygon id="Shape" fill="#161616" points="7.51874166 3.74080671 7.87358037 3.74080671 7.51874166 21.8040859"></polygon>
                    <polygon id="Shape" fill="#161616" points="20.035107 2.95715034 20.1353984 3.35877423 3.07583314 7.06155055"></polygon>
                    <polygon id="Shape" fill="#161616" points="20.8976129 7.13991619 20.9979043 7.53174437 3.07583314 11.2834992"></polygon>
                    <polygon id="Shape" fill="#161616" points="20.5967387 12.5373494 20.6669427 12.9389733 3.19618281 15.6719749"></polygon>
                    <polygon id="Shape" fill="#161616" points="21.0079334 10.0786276 2.96551261 13.2426401 3.05577486 13.5854898"></polygon>
                    <polygon id="Shape" fill="#161616" points="19.964903 5.57260346 2.87525036 8.91293871 2.87525036 8.52111053"></polygon>
                    <polygon id="Shape" fill="#161616" points="21.7801771 14.9568884 2.40388084 18.1013096 2.40388084 17.8074384"></polygon>
                </g>
                <polygon id="Shape" fill="#993D2F" points="146.743615 175 136 158.387755 156.139855 153 171 164.604396 147.001207 175"></polygon>
                <path d="M135.985061,158 L103,159.125098 L109.214577,167.250809 C116.447488,167.567368 126.55204,167.567368 140.082466,181.341463 C141.829135,183.119588 143.730799,186.3391 145.78746,191 C146.59582,182.682927 147,177.04878 147,174.097561 L135.985061,158 Z" id="Shape" fill="#934538"></path>
                <polygon id="Shape" fill="#934538" points="146 191 170.863642 165.214817 182 165.831158 170.471044 164 147.198502 173.955713"></polygon>
                <polygon id="Shape" fill="#AF5443" points="181.912088 164.053739 183 167 171.3 165.193548 156 153"></polygon>
                <g id="Group" transform="translate(60.000000, 46.000000)">
                    <polygon id="Shape" fill="url(#linearGradient-5)" points="0.26756129 5.26203871 20.5427613 0.763045161 21.1175226 19.938271 0.0297290323 22.2472258"></polygon>
                    <polygon id="Shape" fill="#934538" points="0.26756129 5.26203871 3.55757419 5.76743226 3.9044129 22.4751484 0.0297290323 22.2472258"></polygon>
                    <polygon id="Shape" fill="#FFFFFF" opacity="0.15" points="0.26756129 5.26203871 3.55757419 5.76743226 3.9044129 22.4751484 0.0297290323 22.2472258"></polygon>
                    <polygon id="Shape" fill="#934538" points="0.237832258 5.26203871 3.51793548 5.76743226 21.0679742 2.24949677 21.0679742 0.247741935"></polygon>
                    <polygon id="Shape" fill="#161616" points="6.37192258 4.84583226 6.37192258 23.8922323 7.02596129 23.8922323"></polygon>
                    <polygon id="Shape" fill="#161616" points="12.4901283 3.54766452 12.5033898 23.0895484 12.317729 22.8120774"></polygon>
                    <polygon id="Shape" fill="#161616" points="17.7581419 2.50714839 18.5707355 22.148129 18.2139871 22.1382194"></polygon>
                    <polygon id="Shape" fill="#161616" points="14.8843355 3.1611871 15.2014452 3.17109677 15.4690065 22.4751484"></polygon>
                    <polygon id="Shape" fill="#161616" points="9.41419355 4.16206452 9.77094194 4.17197419 9.56283871 23.2381935"></polygon>
                    <polygon id="Shape" fill="#161616" points="22.2670452 4.01341935 22.3562323 4.40980645 3.02245161 8.15566452"></polygon>
                    <polygon id="Shape" fill="#161616" points="23.0003613 8.25476129 23.0895484 8.66105806 3.02245161 12.5852903"></polygon>
                    <polygon id="Shape" fill="#161616" points="22.5544258 13.7149935 22.6237935 14.1212903 3.02245161 17.3320258"></polygon>
                    <polygon id="Shape" fill="#161616" points="23.1787355 11.2375742 3.1611871 14.7654194 3.1611871 15.1320774"></polygon>
                    <polygon id="Shape" fill="#161616" points="22.3265032 6.65930323 3.11163871 10.0484129 3.10172903 9.68175484"></polygon>
                    <polygon id="Shape" fill="#161616" points="23.9417806 16.8068129 3.1611871 19.3536 3.1611871 19.7896258"></polygon>
                </g>
                <polygon id="Shape" fill="#0B0A0C" opacity="0.3" points="60.2425409 51.3976015 80.919153 47 81 49.7702952 65.0327238 53.4898524 64.5577478 67.525369 60 68"></polygon>
                <polygon id="Shape" fill="#DB5501" points="53.7981859 69.2865449 104 65 103.823129 77.2549834 52 78"></polygon>
                <polygon id="Shape" fill="#F89309" points="55 69 29.4295907 77.0159046 28 83 53.1445738 76.4870775"></polygon>
                <polygon id="Shape" fill="#F5701C" points="118 86.1333333 103.955838 75.4270368 54 74 69.3515882 87"></polygon>
                <path d="M61.9842571,151.634731 C67.9065942,147.306004 77.4514276,137.746733 85.4663239,136.033279 C93.4812202,134.319825 118.098402,128.177442 128.96589,140.60249 C139.833379,153.027539 136.526741,157.917396 136.526741,157.917396 L117.456815,158.60879 L77.2540164,174.530888 C77.2540164,174.530888 52.9132107,183.889755 41.078407,181.655251 C29.2436032,179.420746 20.8634962,171.885555 21.001684,162.246123 C21.1398719,152.60669 61.9842571,151.634731 61.9842571,151.634731 Z" id="Shape" fill="#AF5443"></path>
                <path d="M61.9842571,151.509737 C67.9065942,147.210046 77.4514276,137.714894 85.4663239,136.012933 C93.4812202,134.310972 118.098402,128.20979 128.96589,140.551496 C139.833379,152.893202 136.526741,157.750261 136.526741,157.750261 L117.417333,159.253162 L79,191 C76.1608392,191 52.9132107,183.548408 41.078407,181.328892 C29.2436032,179.109375 20.8634962,171.624728 21.001684,162.049952 C21.1398719,152.475177 61.9842571,151.509737 61.9842571,151.509737 Z" id="Shape" fill="#86382C"></path>
                <path d="M21,165.352493 C24.5059147,182.72604 52.0679505,177.368779 64.3287483,170.359279 C76.5895461,163.349779 89.8011004,141.109636 89.8011004,141.109636 L116.016231,135.652239 L129,140.218428 L116.036039,134 L85.3345254,135.492022 L21,165.352493 Z" id="Shape" fill="#2F0C07" opacity="0.152734375"></path>
                <polygon id="Shape" fill="#E7610D" points="117.618951 87 117 131.906638 131.386394 134 142 98.9421311"></polygon>
                <polygon id="Shape" fill="#823124" points="115 134.333333 116.6 131 131 133.169421 128.112376 141"></polygon>
                <polygon id="Shape" fill="#6A2419" points="52.7716593 77.0693622 28 84.3504058 31.9712523 78.1520822 54.747552 74 68.8318707 86.3469812 115 134.941176 86 137 62.0476481 89.96267"></polygon>
                <polygon id="Shape" fill="#DB5501" points="118 87 118 131.77459 87.9813084 133 70 87.8954918"></polygon>
                <polygon id="Shape" fill="#994133" points="115.503719 134.109976 117 131 87.8852648 132.262019 86 136"></polygon>
                <path d="M46.8945159,161.625042 C60.0366536,157.923803 63.7677672,155.426461 71.2691662,149.526368 C76.2625746,145.420395 80.5627391,140.513743 84,135 C67.1561276,141.497067 49.381925,147.397161 32.5282597,153.864379 C26.505596,156.172679 17.2022943,157.356678 14,163.03788 C14,163.03788 23.2837157,168.281302 46.8945159,161.625042 Z" id="Shape" fill="#CA4D04"></path>
                <polygon id="Shape" fill="url(#linearGradient-6)" points="22.2187899 86 39.3889278 102.488644 46 153.346862 41.7925443 160 9.24737446 158.955786 3 153.346862 5.00808465 103.39363"></polygon>
                <polygon id="Shape" fill="#0B0A0C" opacity="0.3" points="10.1265942 155 10.7812943 105.197239 27 93.0374753 20.8894662 90 6.70429854 103.500986 6 151.203156"></polygon>
                <path d="M20.1877562,118.075266 L10.6497886,141.533123 C8.70127635,146.501357 11.3707382,152.443755 15.5210693,152.53143 L38.3284054,152.999028 C43.0048349,153.096445 45.6840393,145.848668 42.8197262,140.860951 L29.5503577,116.896528 C27.0367768,112.5615 22.058328,113.204448 20.1877562,118.075266 Z" id="Shape" fill="#2D2D2D"></path>
                <path d="M21.2773517,120.848293 L12.5804963,143.125629 C10.8332725,147.838142 13.2381592,153.478878 17.0172668,153.56048 L37.8268982,153.99909 C42.0869832,154.090892 44.5409491,147.215927 41.9201135,142.483013 L29.8073374,119.767067 C27.530057,115.646168 22.985312,116.227582 21.2773517,120.848293 Z" id="Shape" fill="url(#linearGradient-7)" opacity="0.15"></path>
                <polygon id="Shape" fill="#DB5501" points="1.02535211 101.865594 16.0704225 87 21 91.3628371 6.87183099 105.030398 6.28028169 153.321115 0 154"></polygon>
                <polygon id="Shape" fill="#F89309" points="32 101.27989 44.3359008 153 86 135.53125 65.446621 88"></polygon>
                <polygon id="Shape" fill="#EA8700" points="32.6010929 102 16 87.375 52.2907612 76 65 89"></polygon>
                <polygon id="Shape" fill="#F89309" points="30.6702099 79.7728598 53 76 16 88"></polygon>
                <path d="M1,102 C1,102.627706 7,105.178387 7,105.178387 L6.4,153.372294 L0,154 L1,102 Z" id="Shape" fill="#6A2419" opacity="0.15"></path>
                <path d="M15.8224543,156.312672 C15.8224543,156.312672 21.9321149,158.552831 31.4882507,157.340268 C40.3002611,156.312672 45,151.688489 45,151.688489 C42.8440061,158.265706 37.2637405,162.945374 30.6755875,163.701088 C22.5195822,164.68758 6.8537859,163.834675 0,151.698765 L6.23694517,151 C6.23694517,151 8.81201044,153.753958 15.8224543,156.312672 Z" id="Shape" fill="#F89309"></path>
                <path d="M77,190.334405 C77,190.334405 89.2931642,168.592944 104.871741,166.428817 C123.706131,163.81383 139.057787,174.01328 139.057787,174.01328 L147,191.466564 C147,191.466564 139.107118,176.538095 123.577872,178.50184 C112.952079,179.8444 102.651868,187.519036 101.083157,209 C89.8160677,206.204669 77,190.334405 77,190.334405 Z" id="Shape" fill="#7E2E22"></path>
                <path d="M32,179 C48.7209905,187.364383 85.9712064,210.191696 100,207.829533 C93.2450331,204.663846 81.6864177,195.288513 76.9285714,190.196308 C65.6112048,188.586406 48.5349842,183.55975 32,179 Z" id="Shape" fill="#6A2419"></path>
                <polygon id="Shape" fill="#0B0A0C" opacity="0.3" points="58.9716647 51 43 54.6591858 43 70 46.9952774 69.7025052 47.9114522 56.5433194 59 53.1518789"></polygon>
                <path d="M32.7130435,101.764304 L15.9456522,87 L0.97826087,101.656033 L0,153.025969 C0,153.025969 4.52934783,163.252711 22.1478261,164.837413 C42.3978261,166.628815 45,153.025969 45,153.025969 L32.7130435,101.764304 Z M20.8369565,162.957425 C4.77391304,160.723093 1.6923913,152.799583 1.6923913,152.799583 L2.31847826,102.600948 L15.9456522,89.4607174 L30.9130435,102.689534 L42.5152174,153.025969 C42.5152174,153.025969 38.7,165.447671 20.8369565,162.957425 Z" id="Shape" fill="#6A2419"></path>
                <path d="M149.79242,57.993413 C149.95725,58.2715406 161.107536,49.6495845 161.107536,49.6495845 C162.781578,49.963426 164.306547,50.8085386 165.4513,52.0568269 L169,48.9590607 L158.654473,48 L156.308065,49.3618663 C154.727734,49.4627817 153.158301,49.6905082 151.615249,50.0427994 L148.522257,51.6827933 L147,55.7396202 C148.107032,56.2475636 149.06725,57.0225661 149.79242,57.993413 Z" id="Shape" fill="#0B0A0C" opacity="0.2"></path>
            </g>
        </g>
    </g>
</svg>