<?xml version="1.0" encoding="UTF-8"?>
<svg width="233px" height="331px" viewBox="0 0 233 331" version="1.1" xmlns="http://www.w3.org/2000/svg" xmlns:xlink="http://www.w3.org/1999/xlink">
    <!-- Generator: Sketch 51.1 (57501) - http://www.bohemiancoding.com/sketch -->
    <title>Group 21 Copy</title>
    <desc>Created with Sketch.</desc>
    <defs>
        <linearGradient x1="0%" y1="29%" x2="0%" y2="29%" id="linearGradient-1">
            <stop stop-color="#EFBD50" offset="0%"></stop>
            <stop stop-color="#F4BC71" offset="25%"></stop>
            <stop stop-color="#C64200" offset="50%"></stop>
            <stop stop-color="#9B1600" offset="75%"></stop>
            <stop stop-color="#AA00CE" offset="100%"></stop>
        </linearGradient>
        <path d="M182.194308,53.8001786 C138.396846,33.4425 50.9438462,30.85875 0.0786153846,58.1442857 C1.44107692,51.4719643 36.2973846,0.222857143 92.6976154,0.222857143 C146.6,0.222857143 182.194308,46.8723214 182.194308,53.8001786 Z" id="path-2"></path>
        <radialGradient cx="50%" cy="49.9836538%" fx="50%" fy="49.9836538%" r="73.7707321%" gradientTransform="translate(0.500000,0.499837),scale(0.546139,1.000000),translate(-0.500000,-0.499837)" id="radialGradient-4">
            <stop stop-color="#FFFFFF" offset="0%"></stop>
            <stop stop-color="#FFFFFF" offset="100%"></stop>
        </radialGradient>
    </defs>
    <g id="Page-1" stroke="none" stroke-width="1" fill="none" fill-rule="evenodd">
        <g id="Artboard-Copy" transform="translate(-1421.000000, -827.000000)">
            <g id="Group-21-Copy" transform="translate(1421.000000, 827.000000)">
                <circle id="Oval" fill="#FFFFFF" fill-rule="nonzero" cx="72.5" cy="115.261905" r="1.5"></circle>
                <g id="Group" opacity="0.7" transform="translate(171.000000, 107.761905)" fill-rule="nonzero">
                    <g transform="translate(23.500000, 0.000000)" fill="#FFFFFF" id="Shape" opacity="0.2">
                        <path d="M7.775,22.496 C9.828125,20.76 10.446875,20.34 11.796875,14.096 C14.215625,2.896 21.95,1.076 19.25,0.236 C10.8125,-0.38 -2.6875,10.204 1.025,20.956 C1.8125,23.42 5.609375,23.588 7.775,22.496 Z"></path>
                    </g>
                    <path d="M44.04375,36.748 C12.2625,36.748 0.084375,30.616 0.084375,28.348 C1.715625,29.496 10.2375,33.78 30.15,33.948" id="Shape" fill="#0B0A0C" opacity="0.2"></path>
                    <path d="M24.58125,36.748 L24.58125,35.152" id="Shape" fill="url(#linearGradient-1)"></path>
                    <path d="M24.58125,36.244 L24.58125,35.152" id="Shape" fill="#0B0A0C" opacity="0.3"></path>
                </g>
                <ellipse id="Oval" fill="#FFFFFF" fill-rule="nonzero" cx="115.5" cy="173.511905" rx="64.5" ry="3.75"></ellipse>
                <g id="Group" transform="translate(8.000000, 55.761905)" fill-rule="nonzero">
                    <path d="M213.157895,110.357609 L2.64315789,110.357609 C2.64315789,57.0795652 49.7936842,0.283695652 107.943158,0.283695652 C166.092632,0.283695652 213.157895,56.966087 213.157895,110.357609 Z" id="Shape" fill="#08AAAC"></path>
                    <path d="M11.6526316,118.868478 L203.750526,118.868478 C210.202105,118.868478 215.261053,114.21587 214.806316,108.740543 C209.917895,52.001413 163.847368,0.198586957 107.715789,0.198586957 C51.5842105,0.198586957 5.4,50.0155435 0.596842105,108.768913 C0.170526316,114.1875 5.20105263,118.868478 11.6526316,118.868478 Z" id="Shape" fill="#1CACB7"></path>
                    <path d="M11.6526316,118.868478 L203.750526,118.868478 C210.202105,118.868478 215.261053,114.21587 214.806316,108.740543 C209.917895,52.001413 163.847368,0.198586957 107.715789,0.198586957 C51.5842105,0.198586957 5.4,50.0155435 0.596842105,108.768913 C0.170526316,114.1875 5.20105263,118.868478 11.6526316,118.868478 Z" id="Shape" fill="#FFFFFF" opacity="0.2"></path>
                    <path d="M24.3,114.556304 L194.286316,115.634348 C200.737895,115.634348 205.796842,110.981739 205.342105,105.506413 C200.453684,48.6821739 168.934737,2.55326087 107.715789,2.55326087 C41.2673684,2.55326087 11.3684211,57.3065217 11.3684211,104.456739 C11.3684211,109.932065 17.8484211,114.556304 24.3,114.556304 Z" id="Shape" fill="#1CACB7"></path>
                    <path d="M174.42,106.017065 C174.42,106.017065 180.331579,71.973587 165.893684,59.3775 C162.43272,56.7214297 158.27888,55.116087 153.928421,54.7532609 C151.342105,54.4411957 149.125263,55.8029348 149.977895,57.1930435 C153.473684,62.8669565 160.891579,76.2290217 159.982105,87.6052174 C159.783158,90.2152174 155.775789,89.5627174 152.933684,88.7116304 C151.086316,88.1442391 150.091579,87.0661957 150.091579,85.8746739 C150.461053,81.1369565 151.626316,68.0018478 150.091579,64.9095652 C150.091579,64.6826087 149.523158,64.5975 148.983158,64.5691304 C147.249474,64.5691304 145.856842,65.3067391 145.856842,66.2713043 L145.856842,87.435 C145.856842,88.5697826 144.549474,89.5627174 142.588421,89.9315217 L138.438947,90.498913 C136.733684,90.8109783 134.971579,90.1017391 135,89.1088043 L135.483158,72.2572826 C135.682105,69.9593478 132.356842,68.0018478 128.150526,67.9734783 C123.486246,67.7140816 118.808518,68.1055732 114.252632,69.1366304 C108.852632,71.0941304 114.082105,97.2225 114.082105,97.2225 L99.4736842,97.875 L95.8926316,78.2432609 L89.3557895,76.9666304 L88.1052632,88.4563043 L82.4210526,89.2790217 L84.2115789,73.08 C84.2611485,72.7128552 84.2611485,72.3407317 84.2115789,71.973587 L82.4210526,60.8243478 L75.3442105,64.9663043 C72.1563608,66.5099312 69.8376172,69.408323 69.0347368,72.8530435 L66.1926316,93.0521739 L57.0978947,93.0521739 C57.0978947,93.0521739 54.2557895,85.5342391 57.0978947,79.7184783 C58.5757895,76.8815217 56.5863158,76.8815217 54.2557895,77.5623913 C51.6292118,78.1362587 49.427699,79.9132044 48.3157895,82.3568478 C46.6073409,86.8908437 45.7405623,91.6975567 45.7578947,96.5416304 C46.5536842,102.016957 36.4357895,99.7190217 36.4357895,99.7190217 C35.5371894,96.6785896 35.7178985,93.4216964 36.9473684,90.498913 C39.0505263,86.1867391 25.1526316,93.1372826 25.1526316,93.1372826 L28.8473684,110.159022 L174.42,106.017065 Z" id="Shape" fill="#376F89" opacity="0.2"></path>
                    <path d="M30.4389474,116.400326 L127.212632,117.393261 C133.181053,117.393261 162.085263,115.946413 165.978947,99.9743478 C173.368421,69.8742391 159.157895,2.55326087 107.772632,2.55326087 C46.1842105,2.55326087 18.4452632,55.2922826 18.4452632,99.0097826 C18.4452632,114.925109 24.4705263,116.400326 30.4389474,116.400326 Z" id="Shape" fill="#FFFFFF" opacity="0.2"></path>
                    <path d="M64.0042105,84.0590217 C71.1947368,77.9311957 73.3547368,76.4559783 78.2147368,54.4128261 C86.7410526,15.206087 113.741053,8.79456522 104.248421,5.84413043 C74.3494737,3.68804348 27.5115789,40.7954348 40.4715789,78.5553261 C43.2568421,87.0378261 56.4157895,87.8321739 64.0042105,84.0590217 Z" id="Shape" fill="#FFFFFF" opacity="0.2"></path>
                    <path d="M151.228421,17.8728261 C151.228421,17.8728261 211.736842,55.661087 195.366316,109.62 C187.351579,136.032065 49.2252632,132.599348 7.78736842,118.301087 C-1.47789474,115.095326 0.511578947,107.435543 1.59157895,100.45663 C2.33052632,95.6621739 7.61684211,79.6617391 12.8178947,93.6195652 C22.0263158,118.386196 117.691579,120.286957 145.402105,96.2295652 C185.362105,61.4768478 151.228421,17.8728261 151.228421,17.8728261 Z" id="Shape" fill="#376F89" opacity="0.3"></path>
                </g>
                <path d="M26,109.261905 C44.498954,102.128051 110.304393,77.7168939 201.5,106.112977 C199.767416,102.200043 197.422974,98.5797517 194.552301,95.3843293 C194.552301,95.3843293 86.1569038,70.5273066 56.8410042,85.6310132 C30.2364017,99.341389 26,109.261905 26,109.261905 Z" id="Shape" fill="#0B0A0C" fill-rule="nonzero" opacity="0.3"></path>
                <path d="M200.454723,104.323079 C159.011845,87.1942049 75.6168953,85.9095393 27.893937,107.66321 L23,109.261905 C23,109.261905 63.3679084,56.7619048 115.305876,56.7619048 C164.528133,56.7619048 204.5,104.894042 204.5,104.894042 L200.454723,104.323079 Z" id="Shape" fill="#6A2419" fill-rule="nonzero"></path>
                <polygon id="Shape" fill="#418F93" fill-rule="nonzero" points="113.603933 4.76190476 113.300562 4.76190476 111 54.2619048 115.5 54.2619048"></polygon>
                <path d="M150.5,69.156329 C150.5,78.2540639 134.705072,64.3135348 115.25,64.3135348 C95.7949281,64.3135348 80,78.31005 80,69.156329 C80,60.0026081 95.7949281,46.7619048 115.25,46.7619048 C134.705072,46.7619048 150.5,60.0585942 150.5,69.156329 Z" id="Shape" fill="#418F93" fill-rule="nonzero"></path>
                <g id="Group" transform="translate(110.000000, 0.761905)" fill="#418F93" fill-rule="nonzero">
                    <circle id="Oval" cx="3.65" cy="3.28" r="3.28"></circle>
                </g>
                <path d="M232.443175,166.430792 C232.443175,160.651534 180.902834,157.761905 116.349551,157.761905 C51.796268,157.761905 0.000213938442,162.154141 0.000213938442,166.459688 C-0.0150617798,168.533631 0.788264823,170.527139 2.23025323,171.993679 C3.67224163,173.460219 5.63237644,174.277223 7.67159879,174.261687 L224.88544,174.261687 C229.090845,174.261687 232.5,170.794488 232.5,166.517481 L232.443175,166.430792 Z" id="Shape" fill="#DB5501" fill-rule="nonzero"></path>
                <path d="M225.5,172.583601 C187.118917,176.789209 148.516337,178.851121 109.886792,178.758947 C45.6981132,178.758947 8,172.719622 8,172.719622 C8,172.719622 45.5849057,166.76191 109.886792,166.76191 C148.503912,166.75828 187.094654,168.701513 225.5,172.583601 Z" id="Shape" fill="#6F2E06" fill-rule="nonzero"></path>
                <path d="M210.160175,175.625541 C206.563699,173.907359 165.671473,172.761905 115.292478,172.761905 C64.913483,172.761905 24.0212576,173.907359 20.4247807,175.625541 L20,175.625541 L20,204.261905 L210.5,204.261905 L210.5,175.625541 L210.160175,175.625541 Z" id="Shape" fill="#DB5501" fill-rule="nonzero"></path>
                <path d="M210.131911,175.761905 C206.535969,173.961905 165.649822,172.761905 115.278315,172.761905 C64.9068074,172.761905 24.0206599,173.961905 20.4247176,175.761905 L20,175.761905 L20,180.501905 L210.5,186.261905 L210.5,175.761905 L210.131911,175.761905 Z" id="Shape" fill="#0B0A0C" fill-rule="nonzero" opacity="0.3"></path>
                <ellipse id="Oval" fill="#4C1D15" fill-rule="nonzero" cx="115.25" cy="203.761905" rx="95.25" ry="3"></ellipse>
                <path d="M115.358071,202.761905 C72.0128015,202.761905 39,202.761905 39,202.931716 L39,229.761905 L192,229.761905 L192,202.960018 C192,202.931716 158.70334,202.761905 115.358071,202.761905 Z" id="Shape" fill="#DB5501" fill-rule="nonzero"></path>
                <path d="M192,202.930444 C192,202.930444 158.70334,202.761905 115.358071,202.761905 C72.0128015,202.761905 39,202.761905 39,202.930444 L39,210.261905 L191.886456,205.992242 L191.886456,202.958534 L192,202.930444 Z" id="Shape" fill="#0B0A0C" fill-rule="nonzero" opacity="0.3"></path>
                <polygon id="Shape" fill="#0B0A0C" fill-rule="nonzero" opacity="0.3" points="11 166.761905 26.6956005 170.509108 30.3483948 173.44535 31.3757432 201.521413 35 204.261905 28.8929845 203.954298"></polygon>
                <polygon id="Shape" fill="#0B0A0C" fill-rule="nonzero" opacity="0.3" points="32 168.761905 43.7094431 171.059019 54.31477 174.532703 52.9491525 202.770394 56 204.395182 53.7046005 218.261905 48.0968523 218.14985"></polygon>
                <polygon id="Shape" fill="#0B0A0C" fill-rule="nonzero" opacity="0.3" points="61 168.761905 73.0554273 169.406217 85 173.860377 84.4457275 202.154095 85 204.311141 81.1755196 218.14985 74.7736721 218.261905 74.0254042 200.47328"></polygon>
                <polygon id="Shape" fill="#0B0A0C" fill-rule="nonzero" opacity="0.3" points="93 170.017294 105.267692 167.761905 120 172.892916 117.590769 201.367212 117.341538 203.594409 112.966154 217.916134 105.267692 218.761905 102.72 200.013978"></polygon>
                <polygon id="Shape" fill="#0B0A0C" fill-rule="nonzero" opacity="0.3" points="123 170.786748 135.085627 167.761905 151.5 172.793886 149.030581 201.289603 147.229358 203.325012 142.348624 217.261905 134.185015 217.261905 133.022936 200.83729"></polygon>
                <polygon id="Shape" fill="#4C1D15" fill-rule="nonzero" points="198.5 155.761905 183.16194 172.646502 179 217.261905"></polygon>
                <polygon id="Shape" fill="#4C1D15" fill-rule="nonzero" points="226 160.761905 203.884527 174.486232 202 217.761905"></polygon>
                <polygon id="Shape" fill="#4C1D15" fill-rule="nonzero" points="162 153.761905 154.984026 172.180322 153 216.761905"></polygon>
                <polygon id="Shape" fill="#4C1D15" fill-rule="nonzero" points="125.34 152.761905 123 171.969834 123.72 217.261905"></polygon>
                <polygon id="Shape" fill="#4C1D15" fill-rule="nonzero" points="32 158.761905 48.2452416 173.309375 51.5 217.261905"></polygon>
                <polygon id="Shape" fill="#4C1D15" fill-rule="nonzero" points="5 161.761905 25.2018349 173.652715 29 217.261905"></polygon>
                <polygon id="Shape" fill="#4C1D15" fill-rule="nonzero" points="66 154.761905 75 172.465558 74.6237942 217.761905"></polygon>
                <polygon id="Shape" fill="#4C1D15" fill-rule="nonzero" points="104 152.761905 106.49 171.969834 105.65 217.261905"></polygon>
                <polygon id="Shape" fill="#0B0A0C" fill-rule="nonzero" opacity="0.3" points="160 202.66603 166.122768 169.761905 179.5 171.688982 174.828125 203.011178 173.348214 204.880731 166.325893 219.261905 161.247768 219.261905 161.537946 204.449296"></polygon>
                <polygon id="Shape" fill="#0B0A0C" fill-rule="nonzero" opacity="0.3" points="201.235216 170.761905 206.545455 171.985589 218 170.761905 203 204.761905 198.677405 204.996605 192.533098 205.261905 192.533098 211.940301 186 217.761905"></polygon>
                <polygon id="Shape" fill="#6A2419" fill-rule="nonzero" points="138 152.761905 124.514019 152.761905 123 217.261905 134.943925 217.261905"></polygon>
                <polygon id="Shape" fill="#6A2419" fill-rule="nonzero" points="103.457944 152.761905 90 152.761905 93.0560748 217.261905 105 217.261905"></polygon>
                <polygon id="Shape" fill="#6A2419" fill-rule="nonzero" points="67.1026012 154.761905 56 155.451371 66.7080925 217.761905 75.5 217.761905"></polygon>
                <polygon id="Shape" fill="#6A2419" fill-rule="nonzero" points="31.7505219 158.761905 24 159.353953 43.8695198 217.261905 51 217.261905"></polygon>
                <polygon id="Shape" fill="#6A2419" fill-rule="nonzero" points="5.55140187 161.761905 0 162.93666 24.7570093 217.261905 30 217.261905"></polygon>
                <polygon id="Shape" fill="#6A2419" fill-rule="nonzero" points="153 217.761905 162.444293 217.761905 174 155.33101 161.930707 154.761905"></polygon>
                <polygon id="Shape" fill="#6A2419" fill-rule="nonzero" points="179 217.261905 186.350636 217.261905 206 156.706298 198.163136 155.761905"></polygon>
                <polygon id="Shape" fill="#6A2419" fill-rule="nonzero" points="201 217.761905 206.239437 217.761905 231 161.92691 225.394366 160.761905"></polygon>
                <g id="Group" transform="translate(22.000000, 50.761905)">
                    <g id="Shape">
                        <mask id="mask-3" fill="white">
                            <use xlink:href="#path-2"></use>
                        </mask>
                        <use id="Mask" fill="#DB5501" fill-rule="nonzero" xlink:href="#path-2"></use>
                        <path d="M56.5072308,70.0976786 C36.9218462,73.1925 9.72938462,62.4032143 0.0786153846,58.1726786 C1.44107692,51.5003571 61.0487692,-44.3539286 139.503846,12.375 C86.2543077,-7.44321429 55.3434615,58.1726786 56.5072308,70.0976786 Z" fill="url(#radialGradient-4)" fill-rule="nonzero" opacity="0.4" mask="url(#mask-3)"></path>
                    </g>
                </g>
                <path d="M195.190476,225.761905 L33,225.761905 C40.9981015,251.878659 51.2519067,277.563869 63.6943685,302.649587 C97.6930594,303.893871 131.293639,303.893871 164.496108,302.649587 C176.446332,277.437533 186.691263,251.774551 195.190476,225.761905 Z" id="Shape" fill="#DB5501" fill-rule="nonzero"></path>
                <polygon id="Shape" fill="#FB950D" fill-rule="nonzero" opacity="0.85" style="mix-blend-mode: screen;" points="46 251.761905 66.5137363 300.105188 94.3452381 300.105188 81.8690476 253.444597"></polygon>
                <path d="M145.219472,286.569973 C143.915309,286.569973 142.551866,286.569973 141.247703,286.569973 C139.943539,286.569973 138.224415,286.569973 136.683131,286.569973 L136.20889,286.569973 L136.20889,286.927225 C135.438248,290.455092 134.489766,294.161585 133.600564,297.734109 C133.067043,299.832966 132.533521,301.97648 132,304.075338 L133.244883,304.075338 C133.719124,302.021137 134.252646,299.966936 134.786167,297.912735 C135.675369,294.429524 136.623851,290.857001 137.335213,287.418447 C138.698656,287.418447 140.00282,287.418447 141.306983,287.418447 C142.611146,287.418447 144.33027,287.418447 145.871554,287.418447 L146.345795,287.418447 L152.27381,242.761905 L151.088207,242.761905 L145.219472,286.569973 Z" id="Shape" fill="#6A2419" fill-rule="nonzero"></path>
                <path d="M106.396638,292.015431 C105.925467,287.198894 105.454296,282.427795 104.983125,277.702135 L104.983125,277.293184 L104.394161,277.293184 C100.212518,277.293184 96.0897714,277.293184 92.1437139,277.293184 C88.1976564,277.293184 84.428288,277.293184 80.3644377,277.293184 C75.4330177,263.77867 72.9553893,249.801705 73.00239,235.761905 L72.0011516,235.761905 C71.9382085,250.002872 74.4558497,264.180721 79.480992,277.883891 L79.480992,278.201964 L79.952163,278.201964 C84.1338061,278.201964 88.1976564,278.201964 92.1437139,278.201964 C96.0897714,278.201964 99.8002434,278.201964 103.92299,278.201964 C104.394161,282.745868 104.865332,287.289772 105.336503,292.106309 C105.807674,296.922847 106.219949,300.966921 106.632224,305.329069 L107.869048,305.329069 C107.33898,300.921482 106.867809,296.468457 106.396638,292.015431 Z" id="Shape" fill="#6A2419" fill-rule="nonzero"></path>
                <path d="M148.076007,287.23797 C146.75641,287.23797 145.376832,287.23797 144.057234,287.23797 C142.737637,287.23797 140.998168,287.23797 139.438645,287.23797 L139.018773,287.23797 L139.018773,287.60104 C138.239011,291.186355 137.279304,294.953206 136.379579,298.583905 C135.899725,300.399255 135.419872,302.214604 135,304.075338 L136.259615,304.075338 L137.579212,298.810824 C138.478938,295.270892 139.438645,291.640193 140.158425,288.145645 C141.538004,288.145645 142.857601,288.145645 144.177198,288.145645 C145.496795,288.145645 147.236264,288.145645 148.795788,288.145645 L149.275641,288.145645 L155.27381,242.761905 L154.074176,242.761905 L148.076007,287.23797 Z" id="Shape" fill="#E2F0D5" fill-rule="nonzero"></path>
                <path d="M108.45321,292.831056 C107.981264,288.030304 107.509318,283.274843 107.037372,278.564672 L107.037372,278.157061 L106.683412,278.157061 C102.494892,278.157061 98.3653645,278.157061 94.4128169,278.157061 C90.4602694,278.157061 86.6847016,278.157061 82.6141675,278.157061 C77.6746369,264.686842 75.1929336,250.755688 75.2400116,236.761905 L74.0011535,236.761905 C73.9381069,250.956196 76.4598888,265.087576 81.4932958,278.745833 L81.4932958,279.062864 L81.9652418,279.062864 C86.1537623,279.062864 90.2242964,279.062864 94.1768439,279.062864 C98.1293915,279.062864 101.845966,279.062864 105.975493,279.062864 C106.447439,283.591874 106.919385,288.120885 107.391331,292.921636 C107.863277,297.722387 108.217237,301.119145 108.630189,305.149964 L109.869048,305.149964 C109.515088,301.073855 109.161129,296.952455 108.45321,292.831056 Z" id="Shape" fill="#E2F0D5" fill-rule="nonzero"></path>
                <polygon id="Shape" fill="#146B87" fill-rule="nonzero" opacity="0.25" style="mix-blend-mode: multiply;" points="92.9703269 263.761905 97.3928571 266.053776 97.3928571 288.523099 76.793177 288.523099 74 285.1527"></polygon>
                <polygon id="Shape" fill="#3F7A7E" fill-rule="nonzero" points="65 266.030561 70.4088246 263.761905 94.6309524 263.761905 94.6309524 285.179673 93.0357143 288.530561"></polygon>
                <path d="M93.0714286,288.16489 L72.735759,288.16489 C69.624502,280.814462 67.0419257,273.335245 65,265.761905 L90.0240084,265.761905 C90.8053982,273.138497 91.8212049,280.606159 93.0714286,288.16489 Z" id="Shape" fill="#4E9FA3" fill-rule="nonzero"></path>
                <polygon id="Shape" fill="#FFF7CC" fill-rule="nonzero" opacity="0.6" style="mix-blend-mode: overlay;" points="72 273.178704 83.1785714 273.178704 82.4548611 268.761905 82 269.514525 82.4548611 272.074861 72 272.074861"></polygon>
                <polygon id="Shape" fill="#8453B8" fill-rule="nonzero" opacity="0.4" style="mix-blend-mode: multiply;" points="82.297619 269.756626 82.7278325 268.893867 71 268.761905 72.183087 273.420805 72.5595238 272.27046 71.9679803 269.739699"></polygon>
                <path d="M41.4865472,250.815413 L184,257 C186.552347,250.442394 189.147055,243.266257 191.5,236.5 C169.306546,236.097601 36.9187444,237 36.5,237 C38.0952168,241.232637 40.0907325,246.642391 41.4865472,250.815413 Z" id="Shape" fill="#146B87" fill-rule="nonzero" opacity="0.25" style="mix-blend-mode: multiply;"></path>
                <path d="M211.852076,216.761905 L18.4455429,216.761905 L13,231.112385 C33.8845545,238.895697 80.8598418,243.27381 115.14881,243.27381 C149.437777,243.27381 196.353223,239.078118 217.297619,231.112385 L211.852076,216.761905 Z" id="Shape" fill="#6A2419" fill-rule="nonzero"></path>
                <path d="M201.119048,232.621905 C200.597968,230.905937 199.982889,228.285937 199.27381,224.761905 C190.45731,225.182927 183.681516,225.500229 178.946429,225.71381 C174.065114,225.933986 166.416304,226.267319 156,226.71381 C156.691028,233.446407 156.096344,235.395509 156,242.16619 C171.408469,241.109946 186.737111,239.026364 201.892857,235.928095 C201.714286,234.805238 201.357143,233.744762 201.119048,232.621905 Z" id="Shape" fill="#146B87" fill-rule="nonzero" opacity="0.3" style="mix-blend-mode: multiply;"></path>
                <path d="M66.3619274,233.435768 C66.6682615,231.200812 67.1547619,228.75 67.8214286,226.083333 C60.5878532,225.813509 53.0878532,225.313509 45.3214286,224.583333 C37.555004,223.853158 29.7335565,222.912681 21.8570862,221.761905 L18,231.991579 C33.6490064,236.407182 49.6888298,239.249103 65.8872091,240.47619 C66.0058887,238.069208 65.9024262,236.788202 66.3619274,233.435768 Z" id="Shape" fill="#FB950D" fill-rule="nonzero" opacity="0.65" style="mix-blend-mode: overlay;"></path>
                <polygon id="Shape" fill="#146B87" fill-rule="nonzero" opacity="0.25" style="mix-blend-mode: multiply;" points="161.32366 301.567875 66 300.605188 151.601285 295.756407 167.325126 256.761905 181.428571 257.560427"></polygon>
                <path d="M18,219.011905 L19,216.792393 L212.443197,216.761905 L214,221.261905 C180.328244,222.966353 147.328244,223.63302 115,223.261905 C82.6717563,222.89079 50.338423,221.474123 18,219.011905 Z" id="Shape" fill="#0B0A0C" fill-rule="nonzero" opacity="0.3"></path>
                <path d="M159.333333,327.09044 C130.425742,332.080965 100.907592,332.080965 72,327.09044 L77.932971,302.761905 L153.281703,302.761905 L159.333333,327.09044 Z" id="Shape" fill="#6A2419" fill-rule="nonzero"></path>
                <path d="M90.8871833,326.883282 C85.2383016,326.349314 79.5894198,325.696687 74,324.806742 L78.9353388,305.761905 L93.2656598,305.761905 C92.9841735,312.850368 92.1892746,319.909238 90.8871833,326.883282 Z M108.309524,305.761905 L100.757861,305.761905 C100.779566,310.486008 100.301218,315.19919 99.3307749,319.823046 C98.9740035,322.255564 98.6766939,324.747412 98.4388462,327.17993 L107.001362,327.595238 C107.298671,320.475673 107.477057,313.059459 108.309524,305.761905 Z" id="Shape" fill="#FB950D" fill-rule="nonzero" opacity="0.65" style="mix-blend-mode: overlay;"></path>
                <path d="M152.154762,325.846159 C150.511464,319.24763 149.42661,312.530685 148.910952,305.761905 L135,305.761905 C136.041831,313.004828 136.041831,320.352315 135,327.595238 C140.676667,326.992107 146.415714,326.328664 152.154762,325.846159 Z" id="Shape" fill="#146B87" fill-rule="nonzero" opacity="0.3" style="mix-blend-mode: multiply;"></path>
            </g>
        </g>
    </g>
</svg>